<svg width="10" height="11" viewBox="0 0 10 11" fill="none" xmlns="http://www.w3.org/2000/svg">
<g clip-path="url(#clip0_2142_733)">
<path d="M9.10714 4.60714H6.07143C5.97281 4.60714 5.89286 4.52719 5.89286 4.42857V1.39286C5.89286 0.89978 5.49308 0.5 5 0.5C4.50692 0.5 4.10714 0.89978 4.10714 1.39286V4.42857C4.10714 4.52719 4.02719 4.60714 3.92857 4.60714H0.892857C0.39978 4.60714 0 5.00692 0 5.5C0 5.99308 0.39978 6.39286 0.892857 6.39286H3.92857C4.02719 6.39286 4.10714 6.47281 4.10714 6.57143V9.60714C4.10714 10.1002 4.50692 10.5 5 10.5C5.49308 10.5 5.89286 10.1002 5.89286 9.60714V6.57143C5.89286 6.47281 5.97281 6.39286 6.07143 6.39286H9.10714C9.60022 6.39286 10 5.99308 10 5.5C10 5.00692 9.60022 4.60714 9.10714 4.60714Z" fill="white"/>
</g>
<defs>
<clipPath id="clip0_2142_733">
<rect width="10" height="10" fill="white" transform="translate(0 0.5)"/>
</clipPath>
</defs>
</svg>
