<svg width="9" height="5" viewBox="0 0 9 5" fill="none" xmlns="http://www.w3.org/2000/svg">
<path d="M0.280876 0.143511C0.18632 0.238067 0.133199 0.366313 0.133199 0.500035C0.133199 0.633758 0.18632 0.762003 0.280876 0.856559L3.81047 4.38615C3.90502 4.48071 4.03327 4.53383 4.16699 4.53383C4.30071 4.53383 4.42896 4.48071 4.52352 4.38615L8.05311 0.856559C8.14766 0.762003 8.20079 0.633758 8.20079 0.500035C8.20079 0.366313 8.14766 0.238067 8.05311 0.143511C7.95855 0.0489545 7.83031 -0.00416656 7.69658 -0.00416644C7.56286 -0.00416665 7.43462 0.0489545 7.34006 0.14351L4.16699 3.31658L0.993925 0.14351C0.899369 0.0489545 0.771123 -0.00416665 0.637401 -0.00416644C0.503678 -0.00416656 0.375432 0.0489545 0.280876 0.143511Z" fill="#0A0930"/>
</svg>
