<svg width="50" height="50" viewBox="0 0 50 50" fill="#797984" xmlns="http://www.w3.org/2000/svg">
<path d="M25 0C11.2149 0 0 11.2149 0 25C0 38.7851 11.2149 50 25 50C38.7851 50 50 38.7851 50 25C50 11.2149 38.7851 0 25 0ZM25 47.0703C12.8304 47.0703 2.92969 37.1696 2.92969 25C2.92969 12.8304 12.8304 2.92969 25 2.92969C37.1696 2.92969 47.0703 12.8304 47.0703 25C47.0703 37.1696 37.1696 47.0703 25 47.0703Z"/>
<path d="M15.7385 23.5352C18.5116 23.5352 20.7678 21.279 20.7678 18.5059C20.7678 17.2534 20.3064 16.0805 19.5136 15.1807L19.6416 15.098C20.3213 14.6592 20.5166 13.7525 20.0779 13.0729C19.6392 12.3933 18.7324 12.198 18.0528 12.6365L9.13738 18.3915C8.45769 18.8303 8.26238 19.7369 8.70105 20.4166C8.98123 20.8507 9.45223 21.0872 9.93318 21.0872C10.2054 21.0872 10.4805 21.0114 10.7262 20.8529L11.1565 20.5752C11.947 22.3188 13.7027 23.5352 15.7385 23.5352ZM15.7385 20.6055C14.8096 20.6055 14.0198 19.9992 13.7437 19.1617L17.1513 16.9515C17.5815 17.3423 17.8381 17.9022 17.8381 18.506C17.838 19.6636 16.8962 20.6055 15.7385 20.6055Z"/>
<path d="M35.8394 29.4186C33.9138 29.6677 32.2627 30.8612 31.4223 32.6114C31.3486 32.7649 31.2826 32.9203 31.2235 33.0771C29.3201 32.0166 27.1548 31.4452 24.9673 31.4452C22.8002 31.4452 20.6602 32.0042 18.7719 33.0434C18.7162 32.8981 18.6549 32.7539 18.5866 32.6114C17.7464 30.8612 16.0951 29.6676 14.1695 29.4185C13.3671 29.3149 12.6327 29.881 12.5289 30.6833C12.4251 31.4857 12.9914 32.2201 13.7937 32.3239C14.7318 32.4453 15.5362 33.0268 15.9457 33.8795C16.5334 35.1033 16.1573 36.5634 15.0515 37.3511C14.3926 37.8205 14.239 38.7352 14.7084 39.394C14.9942 39.7952 15.445 40.0091 15.9027 40.0091C16.1967 40.0091 16.4936 39.9208 16.7513 39.7372C17.9258 38.9005 18.6981 37.694 19.0039 36.3765C20.7137 35.0856 22.8227 34.3749 24.9673 34.3749C27.1408 34.3749 29.2858 35.1055 31.0074 36.432C31.0116 36.4353 31.0161 36.4378 31.0203 36.4409C31.336 37.7332 32.1023 38.9142 33.2577 39.7372C33.5155 39.9208 33.8123 40.0091 34.1063 40.0091C34.564 40.0091 35.0148 39.7952 35.3006 39.394C35.77 38.7351 35.6164 37.8204 34.9575 37.3511C33.8517 36.5634 33.4756 35.1033 34.0633 33.8795C34.4727 33.0269 35.2771 32.4453 36.2152 32.324C37.0175 32.2202 37.5838 31.4857 37.48 30.6834C37.3762 29.881 36.642 29.3146 35.8394 29.4186Z"/>
<path d="M41.0286 18.3004L32.1132 12.5454C31.4336 12.1066 30.5269 12.302 30.0881 12.9817C29.6493 13.6614 29.8446 14.5682 30.5244 15.0068L30.8261 15.2016C30.0443 16.0986 29.5898 17.2631 29.5898 18.5059C29.5898 21.279 31.846 23.5352 34.6191 23.5352C36.645 23.5352 38.3938 22.3305 39.1897 20.6004L39.4397 20.7618C39.6854 20.9204 39.9605 20.9961 40.2328 20.9961C40.7137 20.9961 41.1848 20.7595 41.4649 20.3255C41.9036 19.6458 41.7083 18.7391 41.0286 18.3004ZM34.6191 20.6055C33.4614 20.6055 32.5195 19.6636 32.5195 18.5059C32.5195 17.9021 32.776 17.3422 33.2063 16.9514L36.6139 19.1616C36.3378 19.9992 35.5479 20.6055 34.6191 20.6055Z"/>
</svg>
