<svg width="410" height="416" viewBox="0 0 410 416" fill="none" xmlns="http://www.w3.org/2000/svg">
<path opacity="0.08" d="M410.272 392.307C410.272 444.648 367.387 1069.75 323 1096.5C260.123 1134.39 156.322 1129.5 75 1129.5C4.24326 1129.5 -92.5883 1145.75 -143 1118C-206.984 1082.77 -216.842 542.877 -216.842 483.558C-216.842 426.747 -239.279 241.266 -179.915 206.108C-70.3065 141.192 -15.9102 293.453 58.6442 293.453C127.064 293.453 205.885 217.04 288 240.5C399.468 272.345 410.272 331.444 410.272 392.307Z" fill="url(#paint0_linear_195_1442)"/>
<path opacity="0.08" d="M562 54C562 106.341 659.322 651.424 614.936 678.173C552.059 716.066 350.322 826 269 826C198.243 826 -16.5883 833.753 -67 806C-130.984 770.775 -182 401.993 -182 342.673C-182 285.863 -169 69 -67 95.5C56.2964 127.533 129.446 0 204 0C272.42 0 292.716 58.1181 369.5 95.5C440.656 130.142 562 -6.86283 562 54Z" fill="url(#paint1_linear_195_1442)"/>
<path opacity="0.08" d="M47.1031 9.63249C-125.788 25.5848 -38.8239 596.97 5.53503 616.625C68.3721 644.468 185.1 671 266.371 671C337.083 671 468.332 606.891 518.712 586.498C582.656 560.615 579.984 418.572 579.984 374.985C579.984 333.24 534.066 90.2599 474.739 64.4256C365.2 16.7256 331.081 215.271 256.573 215.271C188.197 215.271 228.492 153.915 143.145 153.915C63.1953 153.915 174.523 -2.12426 47.1031 9.63249Z" fill="url(#paint2_linear_195_1442)"/>
<defs>
<linearGradient id="paint0_linear_195_1442" x1="55.5" y1="-509" x2="34" y2="429" gradientUnits="userSpaceOnUse">
<stop offset="0.025" stop-color="#0E327E"/>
<stop offset="0.365" stop-color="#2144B4"/>
<stop offset="1" stop-color="#BE6BC5"/>
</linearGradient>
<linearGradient id="paint1_linear_195_1442" x1="222" y1="-511.5" x2="232" y2="424" gradientUnits="userSpaceOnUse">
<stop offset="0.025" stop-color="#0E327E"/>
<stop offset="0.365" stop-color="#2144B4"/>
<stop offset="1" stop-color="#BE6BC5"/>
</linearGradient>
<linearGradient id="paint2_linear_195_1442" x1="261.8" y1="-365.379" x2="261.8" y2="321.288" gradientUnits="userSpaceOnUse">
<stop stop-color="#0E327E"/>
<stop offset="0.365" stop-color="#2144B4"/>
<stop offset="1" stop-color="#BE6BC5"/>
</linearGradient>
</defs>
</svg>
