<svg width="30" height="30" viewBox="0 0 30 30" fill="none" xmlns="http://www.w3.org/2000/svg">
<g clip-path="url(#clip0_162_3122)">
<path d="M25.6541 0.728027C25.0652 0.728027 24.5887 1.20504 24.5887 1.79337V3.70401H22.6786C22.0898 3.70401 21.6133 4.18102 21.6133 4.76935C21.6133 5.35768 22.0898 5.83469 22.6786 5.83469H24.5887V7.74534C24.5887 8.33367 25.0652 8.81068 25.6541 8.81068C26.2429 8.81068 26.7194 8.33367 26.7194 7.74534V5.83469H28.6295C29.2184 5.83469 29.6949 5.35768 29.6949 4.76935C29.6949 4.18102 29.2184 3.70401 28.6295 3.70401H26.7194V1.79337C26.7194 1.20504 26.2429 0.728027 25.6541 0.728027Z" fill="#523DD8"/>
<path d="M25.6541 10.9376C23.9602 10.9376 22.5859 9.61655 22.4794 7.94396C20.8068 7.83745 19.4858 6.46312 19.4858 4.76926C19.4858 3.93827 19.7947 3.19252 20.3167 2.63858C19.4325 1.96741 18.3139 1.57324 17.1314 1.57324H12.87C10.3026 1.57324 8.13991 3.4056 7.64983 5.83461H5.41264C2.47229 5.83461 0.0859375 8.22096 0.0859375 11.1613V23.9454C0.0859375 26.8858 2.47229 29.2721 5.41264 29.2721H24.5888C27.5291 29.2721 29.9155 26.8858 29.9155 23.9454V11.1613C29.9155 9.95747 29.5106 8.83887 28.8288 7.94396C28.7223 9.61655 27.348 10.9376 25.6541 10.9376ZM15.0007 25.0107C10.8885 25.0107 7.54332 21.6656 7.54332 17.5534C7.54332 13.4412 10.8885 10.096 15.0007 10.096C19.1129 10.096 22.4581 13.4412 22.4581 17.5534C22.4581 21.6656 19.1129 25.0107 15.0007 25.0107Z" fill="#523DD8"/>
<path d="M14.9986 22.8802C17.9404 22.8802 20.3253 20.4954 20.3253 17.5535C20.3253 14.6117 17.9404 12.2268 14.9986 12.2268C12.0567 12.2268 9.67188 14.6117 9.67188 17.5535C9.67188 20.4954 12.0567 22.8802 14.9986 22.8802Z" fill="#523DD8"/>
</g>
<defs>
<clipPath id="clip0_162_3122">
<rect width="30" height="30" fill="white"/>
</clipPath>
</defs>
</svg>
