<svg width="225" height="240" viewBox="0 0 225 240" fill="none" xmlns="http://www.w3.org/2000/svg">
<path d="M135.858 165.421C135.876 171.521 131.586 178.915 126.277 181.98L28.0792 238.674C25.3151 240.27 22.8199 240.378 21.0605 239.253L3.91582 229.297C2.1939 228.312 1.16038 226.196 1.16038 223.146L0.717773 74.6083C0.717773 68.507 4.99831 61.0778 10.3119 58.0272L108.517 1.34763C111.174 -0.226428 113.585 -0.374261 115.356 0.658791L132.553 10.6739C134.325 11.6561 135.429 13.8076 135.437 16.8847L135.858 165.421Z" fill="#F3F1FC"/>
<path d="M132.675 10.745C130.904 9.71163 128.493 9.85938 125.836 11.4338L27.6306 68.1133C22.3171 71.1638 18.0364 78.5932 18.0364 84.6941L18.4793 233.232C18.4793 236.234 19.5619 238.399 21.2838 239.382L3.91567 229.296C2.19375 228.312 1.16042 226.197 1.16042 223.146L0.717773 74.6079C0.717773 68.507 4.99825 61.0776 10.312 58.0272L108.517 1.34738C111.174 -0.226789 113.585 -0.374535 115.356 0.658796L132.675 10.745Z" fill="#E9E7FC"/>
<path d="M125.794 11.3889C131.102 8.3238 135.42 10.7843 135.437 16.8845L135.858 165.42C135.876 171.521 131.586 178.914 126.277 181.979L28.0795 238.674C22.7706 241.739 18.4531 239.315 18.4358 233.214L18.0147 84.6785C17.9974 78.5783 22.287 71.1484 27.5958 68.0834L125.794 11.3889Z" fill="#F3F1FC"/>
<path d="M27.8545 84.6494C27.846 81.7092 29.9224 78.1007 32.4687 76.6306L120.505 25.8032C122.775 24.4928 125.613 26.1259 125.62 28.7468L126.019 165.355C126.027 168.327 123.929 171.973 121.356 173.459L33.3662 224.259C31.0964 225.57 28.2583 223.937 28.2507 221.316L27.8545 84.6494Z" fill="white"/>
<path d="M95.4166 52.6143L112.977 95.7001L92.697 107.409C92.352 100.543 88.6184 96.6659 83.3467 96.8048L95.4166 52.6143Z" fill="#51D0EC"/>
<path d="M70.5745 84.4744L70.6283 103.436C64.6135 109.438 60.2629 118.429 59.9322 126.326L39.6518 138.034L39.5508 102.386L70.5745 84.4744Z" fill="#9661C0"/>
<path d="M83.3468 96.8049C88.6186 96.666 92.3522 100.543 92.6972 107.409C92.7135 107.733 92.7223 108.064 92.7233 108.402C92.7528 118.803 85.4042 131.531 76.3526 136.757C67.301 141.983 59.9407 137.747 59.9112 127.346C59.9103 127.008 59.9177 126.668 59.9321 126.326C60.2628 118.429 64.6134 109.438 70.6282 103.436C73.9452 100.125 78.6519 96.9286 83.3468 96.8049Z" fill="#523DD8"/>
<path d="M111.468 130.412C113.021 129.515 114.319 130.255 114.324 132.039C114.329 133.86 113.039 136.093 111.487 136.99L42.4064 177.051C40.8216 177.966 39.556 177.208 39.5508 175.386C39.5457 173.603 40.8029 171.388 42.3878 170.473L111.468 130.412Z" fill="#DADCF7"/>
<path d="M92.9133 161.181C94.4658 160.284 95.7638 161.024 95.7688 162.808C95.774 164.629 94.4845 166.863 92.932 167.759L42.4064 197.06C40.8216 197.975 39.556 197.216 39.5508 195.395C39.5457 193.611 40.8029 191.396 42.3878 190.481L92.9133 161.181Z" fill="#DADCF7"/>
<path d="M207.929 166.29L207.914 171.873C207.917 170.687 207.137 169.499 205.58 168.6C202.475 166.807 197.462 166.807 194.399 168.587C192.853 169.486 192.08 170.656 192.077 171.826L192.093 166.243C192.096 165.073 192.869 163.902 194.415 163.004C197.478 161.224 202.49 161.224 205.595 163.016C207.152 163.915 207.933 165.104 207.929 166.29Z" fill="#FEBC1F"/>
<path d="M207.929 166.29L207.914 171.873C207.917 170.687 207.137 169.499 205.58 168.6C202.475 166.807 197.462 166.807 194.399 168.587C192.853 169.486 192.08 170.656 192.077 171.826L192.093 166.243C192.096 165.073 192.869 163.902 194.415 163.004C197.478 161.224 202.49 161.224 205.595 163.016C207.152 163.915 207.933 165.104 207.929 166.29Z" fill="#FEBC1F"/>
<path d="M224.283 169.323L194.853 152.302L90.1897 213.155L90.1738 218.738L119.605 235.73L224.267 174.907L224.283 169.323ZM205.695 169.559C202.588 171.364 197.554 171.352 194.471 169.572C191.366 167.779 191.349 164.875 194.456 163.07C197.519 161.29 202.532 161.29 205.636 163.083C208.72 164.863 208.758 167.779 205.695 169.559Z" fill="#FEBC1F"/>
<path d="M119.62 230.147L119.605 235.73L90.1738 218.738L90.1897 213.155L119.62 230.147Z" fill="#F9A83D"/>
<path d="M224.283 169.323L224.267 174.907L119.604 235.73L119.62 230.147L224.283 169.323Z" fill="#FEBC1F"/>
<path d="M194.853 152.302L224.282 169.323L119.62 230.147L90.1895 213.155L194.853 152.302ZM194.47 169.572C197.554 171.352 202.588 171.364 205.694 169.559C208.757 167.779 208.719 164.863 205.636 163.083C202.531 161.29 197.519 161.29 194.456 163.07C191.349 164.875 191.366 167.779 194.47 169.572Z" fill="#FFD06C"/>
<path d="M182.329 163.455L180.417 164.566L177.071 162.641L178.987 161.526L182.329 163.455Z" fill="#414F65"/>
<path d="M191.003 163.154L189.092 164.265L181.657 159.974L183.57 158.862L191.003 163.154Z" fill="#414F65"/>
<path d="M181.691 168.567L179.779 169.678L172.345 165.388L174.257 164.276L181.691 168.567Z" fill="#414F65"/>
<path d="M173.066 168.848L171.176 169.947L167.829 168.014L169.721 166.914L173.066 168.848Z" fill="#414F65"/>
<path d="M172.529 173.896L170.618 175.006L163.184 170.715L165.095 169.603L172.529 173.896Z" fill="#414F65"/>
<path d="M163.827 174.216L161.915 175.327L158.571 173.397L160.483 172.286L163.827 174.216Z" fill="#414F65"/>
<path d="M154.693 179.554L152.781 180.664L149.42 178.717L151.347 177.596L154.693 179.554Z" fill="#414F65"/>
<path d="M163.387 179.238L161.475 180.349L154.024 176.04L155.955 174.918L163.387 179.238Z" fill="#414F65"/>
<path d="M154.155 184.603L152.265 185.702L144.815 181.394L146.72 180.286L154.155 184.603Z" fill="#414F65"/>
<path d="M145.461 184.919L143.549 186.03L140.189 184.084L142.115 182.964L145.461 184.919Z" fill="#414F65"/>
<path d="M144.944 189.956L143.033 191.067L135.585 186.761L137.51 185.643L144.944 189.956Z" fill="#414F65"/>
<path d="M136.25 190.272L134.338 191.382L130.98 189.438L132.905 188.32L136.25 190.272Z" fill="#414F65"/>
<path d="M135.711 195.321L133.821 196.419L126.375 192.115L128.277 191.01L135.711 195.321Z" fill="#414F65"/>
<path d="M127.017 195.637L125.105 196.748L121.749 194.805L123.672 193.688L127.017 195.637Z" fill="#414F65"/>
<path d="M126.5 200.674L124.589 201.785L117.145 197.482L119.066 196.365L126.5 200.674Z" fill="#414F65"/>
<path d="M117.29 206.026L115.378 207.137L107.936 202.836L109.856 201.72L117.29 206.026Z" fill="#414F65"/>
<path d="M117.806 200.989L115.895 202.1L112.54 200.16L114.461 199.042L117.806 200.989Z" fill="#414F65"/>
<path d="M108.574 206.343L106.684 207.441L103.339 205.509L105.229 204.411L108.574 206.343Z" fill="#414F65"/>
<path d="M108.058 211.392L106.146 212.503L98.7051 208.204L100.625 207.087L108.058 211.392Z" fill="#414F65"/>
</svg>
