<svg width="20" height="21" viewBox="0 0 20 21" fill="none" xmlns="http://www.w3.org/2000/svg">
<path d="M12.8281 10.5338L19.4141 3.94788C19.7917 3.57026 20 3.06768 20 2.53381C20 1.99995 19.7917 1.49737 19.4141 1.11975C19.0364 0.742134 18.5339 0.533813 18 0.533813C17.4661 0.533813 16.9636 0.742134 16.5859 1.11975L10 7.70569L3.41406 1.11975C3.03645 0.742134 2.53387 0.533813 2 0.533813C1.46613 0.533813 0.963555 0.742134 0.585938 1.11975C0.20832 1.49737 0 1.99995 0 2.53381C0 3.06768 0.20832 3.57026 0.585938 3.94788L7.17188 10.5338L0.585938 17.1198C0.20832 17.4973 0 17.9999 0 18.5338C0 19.0677 0.20832 19.5703 0.585938 19.9479C0.96418 20.3255 1.46613 20.5338 2 20.5338C2.53387 20.5338 3.03582 20.3255 3.41406 19.9479L10 13.3619L16.5859 19.9479C16.9642 20.3255 17.4661 20.5338 18 20.5338C18.5339 20.5338 19.0358 20.3255 19.4141 19.9479C19.7917 19.5703 20 19.0677 20 18.5338C20 17.9999 19.7917 17.4974 19.4141 17.1198L12.8281 10.5338Z" fill="#797984"/>
</svg>
