<svg width="50" height="50" viewBox="0 0 50 50" fill="none" xmlns="http://www.w3.org/2000/svg">
<g clip-path="url(#clip0_422_1703)">
<path d="M25 0C11.2148 0 0 11.2148 0 25C0 38.7852 11.2148 50 25 50C38.7852 50 50 38.7852 50 25C50 11.2148 38.7852 0 25 0ZM25 47.0703C12.8304 47.0703 2.92969 37.1696 2.92969 25C2.92969 12.8304 12.8304 2.92969 25 2.92969C37.1696 2.92969 47.0703 12.8304 47.0703 25C47.0703 37.1696 37.1696 47.0703 25 47.0703Z" fill="#797984"/>
<path d="M32.313 18.19C33.2934 17.2096 34.5969 16.6695 35.9835 16.6695C37.3698 16.6695 38.6733 17.2096 39.6548 18.1908C40.227 18.7626 41.1543 18.7622 41.7262 18.19C42.298 17.6178 42.2976 16.6901 41.7254 16.1182C40.1915 14.5847 38.1522 13.7398 35.9835 13.7398C33.8145 13.7398 31.7751 14.5847 30.2412 16.1182L30.2405 16.119C29.6683 16.6912 29.6687 17.6182 30.2409 18.1904C30.8131 18.7626 31.7408 18.7618 32.313 18.19Z" fill="#797984"/>
<path d="M10.3458 18.19C11.3266 17.2096 12.6301 16.6694 14.0163 16.6694C15.403 16.6694 16.7065 17.2096 17.688 18.1907C18.2602 18.7626 19.1875 18.7622 19.7594 18.19C20.3312 17.6178 20.3308 16.69 19.7586 16.1182C18.2247 14.5847 16.1854 13.7397 14.0163 13.7397C11.8477 13.7397 9.80834 14.5847 8.27445 16.1182L8.27369 16.119C7.70148 16.6912 7.70187 17.6181 8.27407 18.1904C8.84628 18.7626 9.77401 18.7618 10.3458 18.19Z" fill="#797984"/>
<path d="M40.69 23.7305H9.30957C8.50085 23.7305 7.84473 24.3862 7.84473 25.1953C7.84473 34.6699 15.5252 42.3504 24.9998 42.3504C34.4744 42.3504 42.1549 34.6699 42.1549 25.1953C42.1549 24.3862 41.4987 23.7305 40.69 23.7305ZM24.9998 39.4207C17.5829 39.4207 11.5721 33.7791 10.8484 26.6602H39.1512C38.4275 33.7788 32.4175 39.4207 24.9998 39.4207Z" fill="#797984"/>
</g>
<defs>
<clipPath id="clip0_422_1703">
<rect width="50" height="50" fill="white"/>
</clipPath>
</defs>
</svg>
