<svg width="50" height="50" viewBox="0 0 50 50" fill="#797984" xmlns="http://www.w3.org/2000/svg">
<g clip-path="url(#clip0_422_1683)">
<path d="M42.6775 7.32236C37.9557 2.60049 31.6775 0 24.9998 0C18.3221 0 12.0441 2.60049 7.32227 7.32236C2.60039 12.0442 0 18.3223 0 25C0 31.6777 2.60039 37.9558 7.32227 42.6776C12.0441 47.3995 18.3222 50 24.9998 50C31.6774 50 37.9556 47.3995 42.6775 42.6776C47.3994 37.9558 49.9998 31.6777 49.9998 25C49.9998 18.3223 47.3994 12.0442 42.6775 7.32236ZM24.9998 47.0703C12.8303 47.0703 2.92969 37.1696 2.92969 25C2.92969 12.8304 12.8303 2.92969 24.9998 2.92969C37.1694 2.92969 47.0701 12.8304 47.0701 25C47.0701 37.1696 37.1694 47.0703 24.9998 47.0703Z"/>
<path d="M15.5858 14.1211C12.1827 14.1211 9.41406 16.8898 9.41406 20.2931C9.41406 21.1021 10.0699 21.7579 10.8789 21.7579C11.6879 21.7579 12.3438 21.1021 12.3438 20.2931C12.3438 18.5053 13.7981 17.0508 15.5858 17.0508C17.3735 17.0508 18.8279 18.5053 18.8279 20.2931C18.8279 21.1021 19.4838 21.7579 20.2928 21.7579C21.1018 21.7579 21.7576 21.1021 21.7576 20.2931C21.7576 16.8898 18.989 14.1211 15.5858 14.1211Z" />
<path d="M34.414 14.1211C31.0108 14.1211 28.2422 16.8898 28.2422 20.2931C28.2422 21.1021 28.898 21.7579 29.707 21.7579C30.516 21.7579 31.1719 21.1021 31.1719 20.2931C31.1719 18.5053 32.6263 17.0508 34.414 17.0508C36.2017 17.0508 37.6561 18.5053 37.6561 20.2931C37.6561 21.1021 38.3119 21.7579 39.1209 21.7579C39.9299 21.7579 40.5857 21.1021 40.5857 20.2931C40.5857 16.8898 37.8171 14.1211 34.414 14.1211Z" />
<path d="M38.8046 28.3258C38.042 28.0563 37.205 28.456 36.9354 29.2188C35.1516 34.2655 30.3553 37.6562 25.0003 37.6562C19.6452 37.6562 14.8488 34.2655 13.0651 29.2188C12.7956 28.456 11.9585 28.0563 11.1959 28.3258C10.4331 28.5953 10.0333 29.4322 10.3029 30.195C12.4996 36.4101 18.406 40.5859 25.0003 40.5859C31.5945 40.5859 37.5008 36.4101 39.6976 30.195C39.9672 29.4322 39.5675 28.5953 38.8046 28.3258Z"/>
</g>
<defs>
<clipPath id="clip0_422_1683">
<rect width="50" height="50" fill="white"/>
</clipPath>
</defs>
</svg>
