<svg width="26" height="26" viewBox="0 0 26 26" fill="none" xmlns="http://www.w3.org/2000/svg">
<g clip-path="url(#clip0_2137_274)">
<path d="M15.4776 24.8094H20.9047C21.1119 24.8094 21.3106 24.7235 21.4571 24.5706C21.6036 24.4177 21.6859 24.2104 21.6859 23.9941V13.8044L22.125 14.1372C22.208 14.2002 22.3021 14.2454 22.4018 14.2704C22.5016 14.2954 22.6051 14.2997 22.7064 14.2829C22.8078 14.2662 22.9049 14.2287 22.9924 14.1728C23.0799 14.1169 23.1559 14.0435 23.2162 13.9569L25.0178 11.3696C25.0781 11.283 25.1214 11.1849 25.1454 11.0808C25.1693 10.9767 25.1734 10.8687 25.1573 10.7629C25.1413 10.6572 25.1054 10.5558 25.0518 10.4645C24.9982 10.3732 24.9279 10.2939 24.8449 10.2309L13.1262 1.34659C12.9927 1.24541 12.832 1.19092 12.667 1.19092C12.502 1.19092 12.3413 1.24541 12.2078 1.34659L0.489246 10.2308C0.406206 10.2937 0.335858 10.3731 0.282219 10.4643C0.22858 10.5556 0.192701 10.657 0.176631 10.7628C0.160561 10.8686 0.164616 10.9766 0.188563 11.0807C0.212511 11.1848 0.255882 11.283 0.316199 11.3696L2.11796 13.957C2.23974 14.1319 2.42313 14.2492 2.62777 14.283C2.8324 14.3169 3.04154 14.2645 3.20917 14.1374L3.64823 13.8046V23.9943C3.64823 24.2105 3.73054 24.4179 3.87705 24.5707C4.02357 24.7236 4.22228 24.8095 4.42948 24.8095H9.85638C10.0636 24.8095 10.2623 24.7236 10.4088 24.5707C10.5553 24.4179 10.6376 24.2105 10.6376 23.9943V17.675H14.6963V23.9941C14.6963 24.2104 14.7786 24.4177 14.9251 24.5706C15.0717 24.7235 15.2704 24.8094 15.4776 24.8094ZM2.92264 12.339L2.03949 11.0707L12.667 3.01366L23.2945 11.0707L22.4114 12.339L13.126 5.29968C12.9925 5.1985 12.8318 5.14401 12.6668 5.14401C12.5018 5.14401 12.3411 5.1985 12.2076 5.29968L2.92264 12.339ZM9.85624 16.0446C9.64904 16.0446 9.45032 16.1305 9.30381 16.2834C9.1573 16.4363 9.07499 16.6436 9.07499 16.8598V23.1789H5.21053V12.6199L12.667 6.96685L20.1234 12.6198V23.1789H16.2588V16.8598C16.2588 16.6436 16.1765 16.4363 16.03 16.2834C15.8835 16.1305 15.6848 16.0446 15.4776 16.0446H9.85624Z" fill="#797984"/>
</g>
<defs>
<clipPath id="clip0_2137_274">
<rect width="25" height="25" fill="white" transform="translate(0.166992 0.5)"/>
</clipPath>
</defs>
</svg>
