<svg width="26" height="26" viewBox="0 0 26 26" fill="none" xmlns="http://www.w3.org/2000/svg">
<g clip-path="url(#clip0_2137_285)">
<path d="M13.4913 10.694C14.8289 9.65012 15.6905 8.02354 15.6905 6.19935C15.6905 3.05661 13.1337 0.5 9.99113 0.5C6.84858 0.5 4.29178 3.05661 4.29178 6.19935C4.29178 8.02354 5.15352 9.65031 6.49114 10.6942C3.52712 12.0305 1.45898 15.0132 1.45898 18.4699V24.5234C1.45898 25.0628 1.89615 25.5 2.43555 25.5H17.5473C18.0865 25.5 18.5238 25.0628 18.5238 24.5234V18.4699C18.5238 15.013 16.4555 12.0303 13.4913 10.694ZM6.2449 6.19935C6.2449 4.13369 7.92547 2.45312 9.99113 2.45312C12.0568 2.45312 13.7374 4.13369 13.7374 6.19935C13.7374 8.26501 12.0568 9.94538 9.99113 9.94538C7.92547 9.94538 6.2449 8.26482 6.2449 6.19935ZM16.5707 23.5469H3.41211V18.4699C3.41211 14.8463 6.35992 11.8985 9.98331 11.8985H9.99933C13.6227 11.8985 16.5707 14.8463 16.5707 18.4699V23.5469ZM26.459 10.9219C26.459 11.4613 26.0218 11.8985 25.4824 11.8985H22.5535V14.8282C22.5535 15.3676 22.1163 15.8048 21.5769 15.8048C21.0375 15.8048 20.6004 15.3676 20.6004 14.8282V11.8985H17.6705C17.1311 11.8985 16.6939 11.4613 16.6939 10.9219C16.6939 10.3825 17.1311 9.94538 17.6705 9.94538H20.6004V7.01569C20.6004 6.4763 21.0375 6.03913 21.5769 6.03913C22.1163 6.03913 22.5535 6.4763 22.5535 7.01569V9.94538H25.4824C26.0218 9.94538 26.459 10.3825 26.459 10.9219Z" fill="#797984"/>
</g>
<defs>
<clipPath id="clip0_2137_285">
<rect width="25" height="25" fill="white" transform="translate(0.833984 0.5)"/>
</clipPath>
</defs>
</svg>
