<svg width="35" height="35" viewBox="0 0 35 35" fill="none" xmlns="http://www.w3.org/2000/svg">
<path d="M8.27148 6.2207H10.3223V8.27148H8.27148V6.2207Z" fill="white"/>
<path d="M8.27148 10.3223H10.3223V14.4238H8.27148V10.3223Z" fill="white"/>
<path d="M21.6016 2.11914C19.9259 2.11914 18.4356 2.92729 17.4995 4.17423C16.5633 2.92763 15.0738 2.11914 13.3984 2.11914H0V32.8809H35C35 31.855 35 3.14583 35 2.11914H21.6016ZM2.05078 30.8301V28.7793H13.3984C14.7353 28.7793 15.8757 29.6365 16.2989 30.8301H2.05078ZM32.9492 30.8301H18.7011C19.1243 29.6365 20.2647 28.7793 21.6016 28.7793H32.9492V30.8301ZM21.6016 26.7285C19.9262 26.7285 18.4362 27.5364 17.5 28.7829C16.5638 27.5364 15.0738 26.7285 13.3984 26.7285H2.05078V4.16992H13.3984C15.0946 4.16992 16.4746 5.54989 16.4746 7.24609V24.6777H18.5254V7.24609C18.5254 5.54989 19.9054 4.16992 21.6016 4.16992H32.9492V26.7285H21.6016Z" fill="white"/>
<path d="M24.6777 8.27148H30.8301V10.3223H24.6777V8.27148Z" fill="white"/>
<path d="M20.5762 8.27148H22.627V10.3223H20.5762V8.27148Z" fill="white"/>
<path d="M20.5762 12.373H22.627V14.4238H20.5762V12.373Z" fill="white"/>
<path d="M20.5762 16.4746H22.627V18.5254H20.5762V16.4746Z" fill="white"/>
<path d="M20.5762 20.5762H22.627V22.627H20.5762V20.5762Z" fill="white"/>
<path d="M24.6777 12.373H30.8301V14.4238H24.6777V12.373Z" fill="white"/>
<path d="M24.6777 16.4746H30.8301V18.5254H24.6777V16.4746Z" fill="white"/>
<path d="M24.6777 20.5762H30.8301V22.627H24.6777V20.5762Z" fill="white"/>
<path d="M4.16992 16.4746H14.4238V18.5254H4.16992V16.4746Z" fill="white"/>
<path d="M6.2207 20.5762H12.373V22.627H6.2207V20.5762Z" fill="white"/>
</svg>
