<svg width="48" height="48" viewBox="0 0 48 48" fill="none" xmlns="http://www.w3.org/2000/svg">
<path d="M24 0.5625C19.3645 0.5625 14.8331 1.93709 10.9788 4.51243C7.12456 7.08778 4.12051 10.7482 2.34658 15.0309C0.572655 19.3135 0.108514 24.026 1.01286 28.5724C1.9172 33.1189 4.1494 37.295 7.42719 40.5728C10.705 43.8506 14.8812 46.0828 19.4276 46.9872C23.974 47.8915 28.6865 47.4274 32.9692 45.6534C37.2518 43.8795 40.9122 40.8755 43.4876 37.0212C46.0629 33.1669 47.4375 28.6355 47.4375 24C47.4375 17.784 44.9682 11.8226 40.5728 7.42719C36.1774 3.0318 30.216 0.5625 24 0.5625ZM24 44.3125C19.9826 44.3125 16.0554 43.1212 12.715 40.8892C9.37462 38.6573 6.77111 35.4849 5.23371 31.7733C3.6963 28.0616 3.29405 23.9775 4.07781 20.0372C4.86157 16.097 6.79615 12.4776 9.6369 9.63689C12.4777 6.79614 16.097 4.86156 20.0372 4.0778C23.9775 3.29404 28.0616 3.69629 31.7733 5.2337C35.4849 6.7711 38.6573 9.37461 40.8892 12.715C43.1212 16.0554 44.3125 19.9826 44.3125 24C44.3125 29.3872 42.1724 34.5538 38.3631 38.3631C34.5538 42.1724 29.3872 44.3125 24 44.3125Z" fill="#797984"/>
<path d="M17.9531 19.7187V16.7969C17.9531 16.3825 17.7885 15.985 17.4955 15.692C17.2025 15.399 16.805 15.2344 16.3906 15.2344C15.9762 15.2344 15.5788 15.399 15.2858 15.692C14.9927 15.985 14.8281 16.3825 14.8281 16.7969V19.7187C14.8281 20.1332 14.9927 20.5306 15.2858 20.8236C15.5788 21.1166 15.9762 21.2812 16.3906 21.2812C16.805 21.2812 17.2025 21.1166 17.4955 20.8236C17.7885 20.5306 17.9531 20.1332 17.9531 19.7187Z" fill="#797984"/>
<path d="M31.6094 15.2344C31.195 15.2344 30.7975 15.399 30.5045 15.692C30.2115 15.985 30.0469 16.3825 30.0469 16.7969V19.7187C30.0469 20.1332 30.2115 20.5306 30.5045 20.8236C30.7975 21.1166 31.195 21.2812 31.6094 21.2812C32.0238 21.2812 32.4212 21.1166 32.7142 20.8236C33.0073 20.5306 33.1719 20.1332 33.1719 19.7187V16.7969C33.1719 16.3825 33.0073 15.985 32.7142 15.692C32.4212 15.399 32.0238 15.2344 31.6094 15.2344Z" fill="#797984"/>
<path d="M30.25 31.4688H17.75C17.3356 31.4688 16.9382 31.6334 16.6451 31.9264C16.3521 32.2194 16.1875 32.6168 16.1875 33.0312C16.1875 33.4457 16.3521 33.8431 16.6451 34.1361C16.9382 34.4291 17.3356 34.5938 17.75 34.5938H30.25C30.6644 34.5938 31.0618 34.4291 31.3549 34.1361C31.6479 33.8431 31.8125 33.4457 31.8125 33.0312C31.8125 32.6168 31.6479 32.2194 31.3549 31.9264C31.0618 31.6334 30.6644 31.4688 30.25 31.4688Z" fill="#797984"/>
</svg>
