<svg width="11" height="10" viewBox="0 0 11 10" fill="none" xmlns="http://www.w3.org/2000/svg">
<g clip-path="url(#clip0_159_4305)">
<path d="M4.53555 8.59755L1.90234 5.96434L5.44994 2.41675L8.08315 5.04996L4.53555 8.59755Z" fill="white"/>
<path d="M8.49844 4.6357L5.86523 2.00249L6.56042 1.30737L9.19356 3.94058L8.49844 4.6357Z" fill="white"/>
<path d="M9.95541 0.545425C9.6037 0.19371 9.13617 0 8.63873 0C8.14137 0 7.67384 0.19371 7.32213 0.545425L6.97461 0.892944L9.60782 3.52615L9.95541 3.17856C10.3071 2.82692 10.5008 2.35931 10.5008 1.86195C10.5008 1.36459 10.3071 0.897064 9.95541 0.545425Z" fill="white"/>
<path d="M0.585831 7.28091C0.530823 7.33592 0.5 7.41039 0.5 7.48813V9.70699C0.5 9.8688 0.631226 9.99995 0.792969 9.99995H3.0119C3.08965 9.99995 3.16411 9.96913 3.21904 9.9142L4.12137 9.01187L1.48816 6.37866L0.585831 7.28091Z" fill="white"/>
</g>
<defs>
<clipPath id="clip0_159_4305">
<rect width="10" height="10" fill="white" transform="translate(0.5)"/>
</clipPath>
</defs>
</svg>
