<svg width="35" height="35" viewBox="0 0 35 35" fill="none" xmlns="http://www.w3.org/2000/svg">
<path d="M17.5009 11.3478C15.8047 11.3478 14.4248 12.7277 14.4248 14.4238H16.4755C16.4755 13.8585 16.9355 13.3985 17.5009 13.3985C18.0662 13.3985 18.5262 13.8585 18.5262 14.4238C18.5262 14.7889 18.3295 15.1294 18.0128 15.3126C17.0645 15.8611 16.4755 16.8819 16.4755 17.9766V19.5506H18.5262V17.9766C18.5262 17.6115 18.723 17.2709 19.0397 17.0877C19.9879 16.5392 20.5769 15.5184 20.5769 14.4238C20.5769 12.7277 19.197 11.3478 17.5009 11.3478Z" fill="white"/>
<path d="M16.4756 21.6014H18.5263V23.6521H16.4756V21.6014Z" fill="white"/>
<path d="M17.5006 0.000610352C7.86508 0.000610352 0.00123043 7.86508 0.00123043 17.5C0.00123043 21.8146 1.60912 25.9235 4.54799 29.167L0 34.9994H17.5006C27.1361 34.9994 35 27.1349 35 17.5C35 7.86447 27.1355 0.000610352 17.5006 0.000610352ZM4.19965 32.9487L7.26594 29.0164L6.62509 28.3756C3.67603 25.4267 2.05201 21.5644 2.05201 17.5001C2.05201 8.98162 8.98224 2.05139 17.5007 2.05139C26.0191 2.05139 32.9494 8.98162 32.9494 17.5001C32.9494 21.3911 31.5029 24.9502 29.12 27.6693L26.1653 24.7147C27.8581 22.6903 28.7795 20.1647 28.7795 17.5001C28.7795 11.2809 23.7198 6.22116 17.5006 6.22116C11.2814 6.22116 6.22171 11.2809 6.22171 17.5001C6.22171 23.7193 11.2814 28.779 17.5006 28.779H28.0455C25.2826 31.3637 21.5735 32.9487 17.5006 32.9487L4.19965 32.9487ZM25.2787 26.7282H17.5006C12.4122 26.7282 8.27242 22.5884 8.27242 17.5C8.27242 12.4116 12.4122 8.2718 17.5006 8.2718C22.589 8.2718 26.7288 12.4116 26.7288 17.5C26.7288 22.1069 23.5745 24.3604 23.2974 24.7469L25.2787 26.7282Z" fill="white"/>
</svg>
