<svg width="50" height="50" viewBox="0 0 50 50" fill="#797984" xmlns="http://www.w3.org/2000/svg">
<path d="M25 0C11.2149 0 0 11.2149 0 25C0 38.7851 11.2149 50 25 50C38.7851 50 50 38.7851 50 25C50 11.2149 38.7851 0 25 0ZM25 47.0703C12.8304 47.0703 2.92969 37.1696 2.92969 25C2.92969 12.8304 12.8304 2.92969 25 2.92969C37.1696 2.92969 47.0703 12.8304 47.0703 25C47.0703 37.1696 37.1696 47.0703 25 47.0703Z" />
<path d="M25.0003 28.0513C20.9046 28.0513 17.0526 30.2339 14.9478 33.7473C14.5319 34.4412 14.7575 35.3409 15.4515 35.7566C16.1455 36.1727 17.045 35.9469 17.4608 35.2529C19.0396 32.618 21.9285 30.981 25.0003 30.981C28.0808 30.981 30.9739 32.6249 32.5507 35.2713C32.8248 35.7313 33.3112 35.9866 33.8105 35.9866C34.0654 35.9866 34.3238 35.9199 34.5588 35.78C35.2538 35.3658 35.4814 34.4668 35.0674 33.7718C32.9651 30.2432 29.1076 28.0513 25.0003 28.0513Z" />
<path d="M21.8037 19.8939C22.0657 19.1286 21.6576 18.2957 20.8923 18.0337C20.1268 17.7717 19.294 18.1798 19.0319 18.9451C18.5522 20.3471 17.2341 21.2891 15.7522 21.2891C14.2692 21.2891 12.9508 20.3462 12.4715 18.943C12.21 18.1775 11.3775 17.7688 10.6118 18.0303C9.8462 18.2918 9.4377 19.1244 9.69913 19.8899C10.5835 22.4791 13.016 24.2188 15.7522 24.2188C18.4863 24.2188 20.9183 22.4808 21.8037 19.8939Z" />
<path d="M39.3974 18.0336C38.6323 17.7718 37.7992 18.1797 37.537 18.945C37.057 20.347 35.739 21.289 34.2571 21.289C32.7741 21.289 31.4557 20.3461 30.9764 18.9429C30.7149 18.1775 29.8826 17.7687 29.1167 18.0302C28.3511 18.2917 27.9426 19.1243 28.204 19.8899C29.0884 22.479 31.521 24.2187 34.2571 24.2187C36.9912 24.2187 39.4232 22.4808 40.3088 19.8941C40.5708 19.1285 40.1628 18.2957 39.3974 18.0336Z" />
</svg>
