<svg width="20" height="21" viewBox="0 0 20 21" fill="none" xmlns="http://www.w3.org/2000/svg">
<g clip-path="url(#clip0_176_4957)">
<path d="M19.3878 2.39622H15.5951C15.3211 1.30813 14.3346 0.500122 13.1627 0.500122C11.9907 0.500122 11.0043 1.30809 10.7302 2.39622H0.612227C0.274141 2.39622 0 2.67032 0 3.00844C0 3.34657 0.274141 3.62071 0.612227 3.62071H10.7303C11.0043 4.70879 11.9907 5.5168 13.1627 5.5168C14.3346 5.5168 15.3211 4.70883 15.5952 3.62071H19.3878C19.7259 3.62071 20 3.34657 20 3.00848C20 2.6704 19.7259 2.39622 19.3878 2.39622ZM13.1627 4.29231C12.4547 4.29231 11.8789 3.71637 11.8789 3.00848C11.8789 2.30055 12.4548 1.72465 13.1627 1.72465C13.8706 1.72465 14.4465 2.30055 14.4465 3.00848C14.4465 3.71637 13.8706 4.29231 13.1627 4.29231Z" fill="#0A0930"/>
<path d="M19.3878 14.4295H15.5951C15.3211 13.3415 14.3346 12.5334 13.1627 12.5334C11.9907 12.5334 11.0043 13.3414 10.7302 14.4295H0.612227C0.274141 14.4295 0 14.7037 0 15.0418C0 15.3799 0.274141 15.654 0.612227 15.654H10.7303C11.0043 16.7421 11.9907 17.5501 13.1627 17.5501C14.3346 17.5501 15.3211 16.7422 15.5952 15.654H19.3878C19.7259 15.654 20 15.3799 20 15.0418C20 14.7037 19.7259 14.4295 19.3878 14.4295ZM13.1627 16.3256C12.4547 16.3256 11.8789 15.7497 11.8789 15.0418C11.8789 14.3339 12.4547 13.758 13.1627 13.758C13.8706 13.758 14.4465 14.3339 14.4465 15.0418C14.4465 15.7497 13.8706 16.3256 13.1627 16.3256Z" fill="#0A0930"/>
<path d="M19.3878 8.41294H9.26973C8.99574 7.32485 8.0093 6.51685 6.83731 6.51685C5.66535 6.51685 4.67887 7.32481 4.40484 8.41294H0.612227C0.274141 8.41294 0 8.68704 0 9.02517C0 9.36329 0.274141 9.63739 0.612227 9.63739H4.40488C4.67887 10.7255 5.66539 11.5335 6.83734 11.5335C8.0093 11.5335 8.99574 10.7255 9.26977 9.63739H19.3878C19.7259 9.63739 20 9.36325 20 9.02517C20 8.68704 19.7259 8.41294 19.3878 8.41294ZM6.83734 10.309C6.12941 10.309 5.55352 9.73306 5.55352 9.02517C5.55352 8.31724 6.12945 7.74134 6.83734 7.74134C7.54527 7.74134 8.12113 8.31728 8.12113 9.02517C8.12113 9.7331 7.54523 10.309 6.83734 10.309Z" fill="#0A0930"/>
</g>
<defs>
<clipPath id="clip0_176_4957">
<rect width="20" height="20" fill="white" transform="translate(0 0.5)"/>
</clipPath>
</defs>
</svg>
