<svg width="15" height="15" viewBox="0 0 15 15" fill="none" xmlns="http://www.w3.org/2000/svg">
<g clip-path="url(#clip0_408_1958)">
<path fill-rule="evenodd" clip-rule="evenodd" d="M12.8019 2.19498C11.0046 0.397619 8.07429 0.400806 6.27693 2.19817C4.61742 3.85768 4.49155 6.48048 5.89612 8.28817L4.23579 9.94849L3.01363 8.72634C3.0003 8.71153 2.9862 8.69743 2.97142 8.68412C2.72978 8.47568 2.36493 8.50262 2.15654 8.74426C1.95454 8.97843 1.97274 9.3301 2.19783 9.54219L3.41999 10.7643L0.30893 13.8091C-0.235097 14.3531 0.580727 15.1689 1.12475 14.6249L4.23581 11.5802L5.45876 12.8031C5.68905 13.0234 6.05429 13.0153 6.27458 12.785C6.488 12.5619 6.488 12.2104 6.27458 11.9873L5.05164 10.7643L6.71276 9.10322C8.52072 10.5053 11.1435 10.3817 12.802 8.7232C14.5993 6.92579 14.5993 3.99234 12.8019 2.19498ZM11.9861 3.0108C13.3427 4.36742 13.3427 6.55074 11.9861 7.90733C10.6295 9.26391 8.44694 9.26312 7.09036 7.90654C5.73377 6.54995 5.73614 4.3706 7.09275 3.01399C8.44937 1.65738 10.6295 1.65422 11.9861 3.0108Z" fill="#0A0930"/>
</g>
<defs>
<clipPath id="clip0_408_1958">
<rect width="15" height="15" fill="white"/>
</clipPath>
</defs>
</svg>
