<svg width="36" height="35" viewBox="0 0 36 35" fill="none" xmlns="http://www.w3.org/2000/svg">
<path d="M33.3809 16.4746H31.7948C31.6885 16.1771 31.5666 15.8847 31.4295 15.5986L32.5527 14.4754C32.9531 14.0749 32.9531 13.4257 32.5527 13.0253L29.6525 10.125C29.4602 9.93269 29.1994 9.82461 28.9275 9.82461C28.6555 9.82461 28.3947 9.93262 28.2024 10.1249L27.0791 11.2483C26.7929 11.1111 26.5006 10.9892 26.2032 10.8829V9.29688C26.2032 8.73059 25.7441 8.27148 25.1778 8.27148H24.1524V3.07617C24.1524 1.37997 22.7724 0 21.0762 0H4.66992C2.97372 0 1.59375 1.37997 1.59375 3.07617V31.9238C1.59375 33.62 2.97372 35 4.66992 35H21.0762C22.7724 35 24.1523 33.62 24.1523 31.9238V30.8301H25.1777C25.744 30.8301 26.2031 30.371 26.2031 29.8047V28.2186C26.5006 28.1123 26.793 27.9904 27.0792 27.8533L28.2024 28.9765C28.6027 29.377 29.252 29.377 29.6525 28.9765L32.5527 26.0764C32.9531 25.6759 32.9531 25.0267 32.5527 24.6263L31.4295 23.503C31.5666 23.2169 31.6885 22.9245 31.7948 22.627H33.3809C33.9471 22.627 34.4062 22.1679 34.4062 21.6016V17.5C34.4062 16.9337 33.9471 16.4746 33.3809 16.4746ZM3.64453 3.07617C3.64453 2.51077 4.10452 2.05078 4.66992 2.05078H21.0762C21.6416 2.05078 22.1016 2.51077 22.1016 3.07617V4.10156H3.64453V3.07617ZM3.64453 6.15234H22.1016V8.27148H21.0762C20.5099 8.27148 20.0508 8.73059 20.0508 9.29688V10.8829C19.7533 10.9892 19.461 11.1111 19.1749 11.2483L18.0515 10.1249C17.8592 9.93262 17.5985 9.82461 17.3265 9.82461C17.0546 9.82461 16.7937 9.93262 16.6015 10.125L13.7013 13.0253C13.3008 13.4257 13.3008 14.0749 13.7013 14.4754L14.8245 15.5986C14.6874 15.8847 14.5655 16.1771 14.4592 16.4746H12.873C12.3068 16.4746 11.8477 16.9337 11.8477 17.5V21.6016C11.8477 22.1679 12.3068 22.627 12.873 22.627H14.4591C14.5654 22.9245 14.6873 23.2168 14.8244 23.503L13.7012 24.6262C13.3008 25.0266 13.3008 25.6758 13.7012 26.0763L14.3534 26.7284H3.64453V6.15234ZM22.1016 31.9238C22.1016 32.4892 21.6416 32.9492 21.0762 32.9492H4.66992C4.10452 32.9492 3.64453 32.4892 3.64453 31.9238V28.7793H16.4042L16.6014 28.9765C17.0018 29.377 17.6511 29.377 18.0515 28.9765L19.1748 27.8533C19.461 27.9904 19.7533 28.1123 20.0508 28.2186V29.8047C20.0508 30.371 20.5099 30.8301 21.0762 30.8301H22.1016V31.9238ZM32.3555 20.5762H31.0388C30.5719 20.5762 30.1639 20.8916 30.0464 21.3434C29.8807 21.9802 29.6245 22.5948 29.2848 23.1699C29.0469 23.5728 29.1118 24.0856 29.4427 24.4164L30.3775 25.3512L28.9274 26.8013L27.9926 25.8664C27.6618 25.5356 27.149 25.4707 26.7461 25.7086C26.1709 26.0483 25.5564 26.3046 24.9195 26.4702C24.4678 26.5877 24.1523 26.9957 24.1523 27.4626V28.7793H22.1015V27.4626C22.1015 26.9957 21.7861 26.5878 21.3342 26.4703C20.6975 26.3046 20.0829 26.0484 19.5077 25.7087C19.1048 25.4708 18.592 25.5356 18.2612 25.8665L17.3264 26.8013L15.8763 25.3513L16.8111 24.4165C17.142 24.0856 17.2069 23.5728 16.969 23.17C16.6293 22.5948 16.373 21.9803 16.2073 21.3435C16.0898 20.8917 15.6819 20.5762 15.215 20.5762H13.8984V18.5255H15.2151C15.682 18.5255 16.09 18.21 16.2075 17.7582C16.3732 17.1214 16.6294 16.5069 16.9691 15.9317C17.207 15.5289 17.1421 15.016 16.8112 14.6852L15.8764 13.7504L17.3265 12.3002L18.2615 13.2352C18.5923 13.5661 19.1052 13.631 19.5079 13.393C20.0833 13.0533 20.6977 12.797 21.3344 12.6314C21.7862 12.5139 22.1016 12.106 22.1016 11.6391V10.3223H24.1524V11.6389C24.1524 12.1058 24.4678 12.5138 24.9197 12.6313C25.5563 12.7969 26.1708 13.0532 26.7461 13.3929C27.1489 13.6308 27.6617 13.5659 27.9926 13.2351L28.9275 12.3001L30.3776 13.7503L29.4428 14.6851C29.112 15.016 29.047 15.5287 29.2849 15.9316C29.6246 16.5068 29.8809 17.1213 30.0466 17.7581C30.1641 18.2099 30.572 18.5253 31.0389 18.5253H32.3555V20.5762Z" fill="white"/>
<path d="M23.127 14.4238C20.3 14.4238 18 16.7238 18 19.5508C18 22.3778 20.3 24.6777 23.127 24.6777C25.954 24.6777 28.2539 22.3778 28.2539 19.5508C28.2539 16.7238 25.954 14.4238 23.127 14.4238ZM23.127 22.627C21.4308 22.627 20.0508 21.247 20.0508 19.5508C20.0508 17.8546 21.4308 16.4746 23.127 16.4746C24.8232 16.4746 26.2031 17.8546 26.2031 19.5508C26.2031 21.247 24.8232 22.627 23.127 22.627Z" fill="white"/>
</svg>
