<svg width="310" height="400" viewBox="0 0 310 400" fill="none" xmlns="http://www.w3.org/2000/svg">
<g clip-path="url(#clip0_421_1545)">
<path d="M98.3739 267.936H41.1406V376.348H98.3739V267.936Z" fill="#E0E0E0"/>
<path d="M98.373 267.936H71.541V376.348H98.373V267.936Z" fill="#EBEBEB"/>
<path d="M58.2882 278.134H53.1465V290.615H58.2882V278.134Z" fill="#F5F5F5"/>
<path d="M58.2882 326.971H53.1465V339.453H58.2882V326.971Z" fill="#F5F5F5"/>
<path d="M71.5419 295.515C71.5419 295.623 64.7361 295.706 56.3413 295.706C47.9464 295.706 41.1406 295.623 41.1406 295.515C41.1406 295.407 47.9464 295.324 56.3413 295.324C64.7361 295.316 71.5419 295.407 71.5419 295.515Z" fill="#F5F5F5"/>
<path d="M58.2882 302.74H53.1465V315.221H58.2882V302.74Z" fill="#F5F5F5"/>
<path d="M71.5419 320.12C71.5419 320.228 64.7361 320.311 56.3413 320.311C47.9464 320.311 41.1406 320.228 41.1406 320.12C41.1406 320.012 47.9464 319.929 56.3413 319.929C64.7361 319.921 71.5419 320.012 71.5419 320.12Z" fill="#F5F5F5"/>
<path d="M82.382 278.134H77.2402V290.615H82.382V278.134Z" fill="#E0E0E0"/>
<path d="M93.5461 278.134H88.4043V290.615H93.5461V278.134Z" fill="#E0E0E0"/>
<path d="M82.382 301.818H77.2402V314.299H82.382V301.818Z" fill="#E0E0E0"/>
<path d="M93.5461 301.818H88.4043V314.299H93.5461V301.818Z" fill="#E0E0E0"/>
<path d="M82.382 325.493H77.2402V337.974H82.382V325.493Z" fill="#E0E0E0"/>
<path d="M93.5461 325.493H88.4043V337.974H93.5461V325.493Z" fill="#E0E0E0"/>
<path d="M102.674 265.312H36.8379V268.028H102.674V265.312Z" fill="#E0E0E0"/>
<path d="M98.7707 268.285C98.7707 268.393 85.9828 268.476 70.1998 268.476C54.4168 268.476 41.6289 268.385 41.6289 268.285C41.6289 268.186 54.4168 268.094 70.1998 268.094C85.9828 268.094 98.7707 268.177 98.7707 268.285Z" fill="#EBEBEB"/>
<path d="M54.7697 308.594H3.53516V376.041H54.7697V308.594Z" fill="#EBEBEB"/>
<path d="M54.7698 308.594H30.75V376.041H54.7698V308.594Z" fill="#E0E0E0"/>
<path d="M18.8847 317.729H14.2754V328.898H18.8847V317.729Z" fill="#F5F5F5"/>
<path d="M18.8847 361.451H14.2754V372.62H18.8847V361.451Z" fill="#F5F5F5"/>
<path d="M30.7494 333.283C30.7494 333.407 24.6591 333.507 17.1462 333.507C9.63321 333.507 3.54297 333.407 3.54297 333.283C3.54297 333.158 9.63321 333.058 17.1462 333.058C24.6508 333.05 30.7494 333.158 30.7494 333.283Z" fill="#F5F5F5"/>
<path d="M18.8847 339.752H14.2754V350.921H18.8847V339.752Z" fill="#F5F5F5"/>
<path d="M30.7494 355.305C30.7494 355.43 24.6591 355.53 17.1462 355.53C9.63321 355.53 3.54297 355.43 3.54297 355.305C3.54297 355.181 9.63321 355.081 17.1462 355.081C24.6508 355.081 30.7494 355.181 30.7494 355.305Z" fill="#F5F5F5"/>
<path d="M40.4589 317.729H35.8496V328.898H40.4589V317.729Z" fill="#F5F5F5"/>
<path d="M50.4511 317.729H45.8418V328.898H50.4511V317.729Z" fill="#F5F5F5"/>
<path d="M40.4589 338.921H35.8496V350.09H40.4589V338.921Z" fill="#F5F5F5"/>
<path d="M50.4511 338.921H45.8418V350.09H50.4511V338.921Z" fill="#F5F5F5"/>
<path d="M40.4589 360.122H35.8496V371.291H40.4589V360.122Z" fill="#F5F5F5"/>
<path d="M50.4511 360.122H45.8418V371.291H50.4511V360.122Z" fill="#F5F5F5"/>
<path d="M58.6205 306.244H-0.318359V308.677H58.6205V306.244Z" fill="#E0E0E0"/>
<path d="M55.126 308.91C55.126 309.034 43.6777 309.134 29.5503 309.134C15.4229 309.134 3.97461 309.034 3.97461 308.91C3.97461 308.785 15.4229 308.685 29.5503 308.685C43.6777 308.677 55.126 308.785 55.126 308.91Z" fill="#EBEBEB"/>
<path d="M30.6156 55.0323C30.6156 55.0323 22.462 57.482 29.9833 74.9708C37.5045 92.4595 42.9458 101.229 42.9458 101.229C42.9458 101.229 44.2188 105.256 40.8658 105.647C37.5129 106.037 30.2994 104.393 28.5522 108.346C26.7468 112.44 29.534 116.6 35.4911 120.478C41.4482 124.356 54.1945 133.341 55.3509 134.155C56.4825 134.961 57.5391 136.862 55.2927 137.493C53.0546 138.125 36.5311 138.747 37.2965 146.553C38.062 154.359 56.4492 162.448 58.4377 163.369C60.4345 164.291 60.8588 165.188 60.6175 166.301C60.3762 167.414 54.8018 167.098 50.1093 167.463C45.4169 167.829 40.0421 169.083 40.8658 173.55C41.6895 178.018 52.2309 187.983 79.1545 192.426L91.7676 193.672L99.3554 183.474C114.257 160.654 114.015 146.163 111.261 142.542C108.516 138.922 103.965 142.036 100.52 145.241C97.0757 148.447 93.548 152.757 92.5663 152.184C91.5845 151.611 91.2101 150.689 91.8757 148.596C92.5413 146.504 98.981 127.512 93.7311 121.674C88.4812 115.836 76.8665 127.578 74.8863 128.799C72.9061 130.02 72.2156 127.952 72.382 126.582C72.5567 125.187 74.5285 109.732 75.685 102.724C76.8415 95.7148 75.6517 90.8485 71.4085 89.4202C67.3151 88.0417 63.6543 94.4608 61.1001 96.6615C58.5458 98.8621 56.4325 95.2082 56.4325 95.2082C56.4325 95.2082 53.6204 85.2846 45.7829 67.9371C37.9372 50.5895 30.4575 55.0738 30.4575 55.0738" fill="#EBEBEB"/>
<path d="M92.2328 196.703C86.5253 183.939 76.7576 161.078 68.2712 141.496C59.7848 121.923 52.0888 104.21 46.4479 91.4133C43.6274 85.0273 41.3394 79.8621 39.7503 76.2664C38.9682 74.4892 38.3525 73.1024 37.9282 72.1475C37.7285 71.6824 37.5787 71.3253 37.4623 71.0762C37.3624 70.8354 37.3125 70.7025 37.3125 70.7025C37.3125 70.7025 37.3791 70.8188 37.4955 71.0596C37.612 71.3087 37.7784 71.6658 37.9947 72.1225C38.4357 73.0692 39.068 74.4477 39.8834 76.2082C41.5141 79.7624 43.8437 84.9194 46.6975 91.3053C52.405 104.069 60.1426 121.774 68.629 141.347C77.1154 160.928 86.8415 183.798 92.4824 196.595" fill="#E0E0E0"/>
<path d="M38.5529 111.053C38.5612 111.028 38.8691 111.136 39.4182 111.36C39.9673 111.576 40.7494 111.916 41.7145 112.34C43.6364 113.195 46.2655 114.441 49.1443 115.861C51.9731 117.281 54.5356 118.56 56.4908 119.54C57.3727 119.98 58.1215 120.345 58.7206 120.636C59.2447 120.893 59.5359 121.051 59.5276 121.076C59.5193 121.101 59.2115 120.993 58.6623 120.777C58.1132 120.561 57.3312 120.221 56.3743 119.789C54.4607 118.917 51.8483 117.638 48.9695 116.21C46.1324 114.815 43.5615 113.552 41.598 112.589C40.7078 112.157 39.959 111.792 39.36 111.501C38.8275 111.235 38.5446 111.078 38.5529 111.053Z" fill="#E0E0E0"/>
<path d="M60.4425 120.329C60.3427 120.287 62.6806 114.765 65.6509 107.997C68.6294 101.229 71.1254 95.7812 71.2253 95.8227C71.3251 95.8643 68.9955 101.387 66.0169 108.155C63.0301 114.922 60.5424 120.37 60.4425 120.329Z" fill="#E0E0E0"/>
<path d="M72.1064 150.98C72.0898 150.963 72.2895 150.697 72.6722 150.232C73.1132 149.709 73.654 149.061 74.3029 148.289C75.6757 146.645 77.5727 144.369 79.5612 141.778C81.558 139.188 83.2885 136.788 84.5282 135.035C85.1106 134.213 85.6015 133.516 85.9925 132.959C86.342 132.469 86.55 132.212 86.5666 132.22C86.5916 132.237 86.4251 132.528 86.1173 133.042C85.8095 133.557 85.3435 134.288 84.7528 135.185C83.5714 136.979 81.8741 139.412 79.869 142.011C77.8722 144.61 75.9419 146.869 74.5109 148.463C73.7954 149.261 73.2047 149.9 72.7803 150.332C72.3727 150.764 72.1314 150.996 72.1064 150.98Z" fill="#E0E0E0"/>
<path d="M50.467 146.944C50.4753 146.919 50.7748 146.944 51.3322 147.018C51.9646 147.11 52.7383 147.226 53.6618 147.359C55.6254 147.666 58.3294 148.106 61.3079 148.629C64.2948 149.144 66.9905 149.634 68.9374 150.008C69.8442 150.191 70.618 150.348 71.242 150.473C71.7828 150.589 72.0823 150.672 72.074 150.697C72.0657 150.722 71.7662 150.697 71.2087 150.622C70.5764 150.531 69.8027 150.415 68.8791 150.282C66.9156 149.975 64.2116 149.535 61.2247 149.011C58.2378 148.497 55.5422 148.007 53.5953 147.633C52.6884 147.45 51.9146 147.292 51.2906 147.168C50.7582 147.043 50.4586 146.969 50.467 146.944Z" fill="#E0E0E0"/>
<path d="M57.3224 175.303C57.3307 175.278 57.7218 175.311 58.429 175.402C59.2027 175.51 60.2094 175.651 61.4158 175.826C63.9285 176.199 67.4062 176.748 71.2334 177.37C75.0606 177.993 78.5301 178.583 81.0344 179.031C82.2325 179.255 83.2226 179.438 83.9963 179.579C84.6952 179.72 85.0779 179.803 85.0779 179.837C85.0696 179.862 84.6786 179.828 83.9797 179.737C83.2059 179.629 82.1992 179.488 80.9928 179.314C78.4802 178.94 75.0024 178.392 71.1752 177.769C67.348 177.146 63.8786 176.557 61.3742 176.108C60.1762 175.884 59.1861 175.701 58.4123 175.56C57.6968 175.419 57.3141 175.336 57.3224 175.303Z" fill="#E0E0E0"/>
<path d="M84.4294 179.546C84.4045 179.53 84.6541 179.189 85.12 178.583C85.6275 177.927 86.3014 177.071 87.1002 176.042C88.7725 173.891 91.0688 170.918 93.5066 167.563C95.9526 164.208 98.0909 161.119 99.6134 158.869C100.346 157.789 100.961 156.892 101.427 156.203C101.86 155.572 102.109 155.24 102.134 155.248C102.159 155.265 101.951 155.63 101.56 156.286C101.169 156.942 100.587 157.872 99.8464 159.018C98.3738 161.31 96.2688 164.432 93.8227 167.787C91.3766 171.151 89.047 174.099 87.3165 176.208C86.4512 177.254 85.744 178.101 85.2365 178.674C84.7373 179.255 84.4544 179.563 84.4294 179.546Z" fill="#E0E0E0"/>
<path d="M239.834 228.998C222.978 217.247 219.159 195.432 219.825 175.826C219.933 172.554 219.575 169.099 221.139 166.226C222.704 163.353 226.339 161.393 229.276 162.772C231.714 163.918 232.771 166.741 234.135 169.083C235.949 172.197 238.645 174.771 241.823 176.415C243.911 177.495 246.499 178.159 248.554 177.022C251.383 175.461 251.715 171.566 251.699 168.311C251.657 162.24 251.624 156.178 251.582 150.108C251.566 146.852 251.549 143.531 252.564 140.442C253.579 137.352 255.817 134.479 258.92 133.615C262.024 132.752 265.859 134.537 266.517 137.718C266.791 139.046 266.517 140.417 266.608 141.77C266.7 143.124 267.332 144.619 268.613 144.992C269.911 145.374 271.217 144.452 272.199 143.497C275.569 140.209 277.849 135.974 279.987 131.764C282.125 127.553 284.197 123.243 287.25 119.656C290.304 116.069 294.53 113.229 299.198 112.963C303.873 112.697 308.849 115.579 310.03 120.154C311.212 124.746 308.533 129.397 305.612 133.117C301.278 138.631 296.161 143.506 290.453 147.542C289.422 148.272 288.307 149.053 287.916 150.265C287.209 152.433 289.264 154.592 291.418 155.306C293.848 156.112 296.485 155.862 299.031 156.161C301.577 156.46 304.331 157.581 305.288 159.981C306.627 163.311 303.832 166.799 301.095 169.083C295.603 173.658 289.33 177.271 282.632 179.721C280.236 180.601 277.707 181.365 275.777 183.051C273.838 184.736 272.673 187.659 273.847 189.951C275.02 192.243 278.015 192.982 280.528 192.517C283.04 192.052 285.287 190.69 287.683 189.785C292.167 188.1 297.95 188.407 300.828 192.268C302.717 194.809 302.883 198.347 301.927 201.378C300.97 204.409 299.04 207.017 296.984 209.425C289.804 217.837 280.602 224.613 270.202 228.209C259.802 231.796 250.168 232.776 239.834 228.998Z" fill="#F5F5F5"/>
<path d="M239.576 243.539C240.292 235.774 241.997 226.598 244.909 216.708C247.805 206.809 251.873 196.229 256.507 185.301C257.68 182.577 258.837 179.878 259.969 177.221C261.108 174.572 262.248 171.948 263.513 169.448C266.025 164.432 268.829 159.807 271.625 155.497C274.42 151.187 277.233 147.193 279.887 143.481C282.549 139.769 285.095 136.364 287.549 133.35C292.441 127.312 296.959 122.919 300.179 120.021C301.785 118.568 303.074 117.489 303.956 116.758C304.381 116.417 304.713 116.143 304.963 115.944C305.196 115.761 305.313 115.678 305.321 115.678C305.329 115.686 305.221 115.794 305.005 115.985C304.763 116.201 304.447 116.484 304.04 116.849C303.183 117.605 301.926 118.718 300.345 120.187C297.176 123.127 292.724 127.553 287.89 133.607C285.461 136.621 282.94 140.043 280.303 143.755C277.665 147.475 274.878 151.469 272.099 155.779C269.32 160.089 266.541 164.706 264.054 169.689C262.797 172.18 261.674 174.779 260.534 177.437C259.394 180.094 258.246 182.785 257.073 185.509C252.439 196.429 248.362 206.975 245.45 216.832C242.521 226.681 240.774 235.807 240.017 243.547" fill="#E0E0E0"/>
<path d="M263.689 169.432C263.648 169.44 263.539 168.942 263.373 168.045C263.198 167.148 262.999 165.836 262.766 164.217C262.308 160.978 261.817 156.477 261.31 151.519C260.794 146.553 260.245 142.077 259.737 138.855C259.488 137.244 259.271 135.941 259.113 135.035C258.955 134.139 258.888 133.632 258.93 133.624C258.972 133.615 259.113 134.097 259.338 134.986C259.571 135.874 259.845 137.17 260.153 138.781C260.769 142.003 261.384 146.487 261.9 151.453C262.4 156.352 262.84 160.779 263.182 164.167C263.348 165.695 263.481 166.982 263.598 168.02C263.697 168.917 263.731 169.423 263.689 169.432Z" fill="#E0E0E0"/>
<path d="M305.621 161.609C305.621 161.651 305.022 161.717 303.948 161.808C302.875 161.908 301.311 162.033 299.397 162.257C295.553 162.672 290.27 163.428 284.48 164.516C278.689 165.62 273.48 166.832 269.745 167.829C267.873 168.311 266.367 168.742 265.327 169.033C264.287 169.332 263.704 169.473 263.688 169.432C263.671 169.39 264.237 169.174 265.252 168.809C266.275 168.452 267.765 167.953 269.628 167.414C273.347 166.318 278.547 165.03 284.363 163.918C290.179 162.821 295.487 162.132 299.356 161.825C301.286 161.659 302.85 161.592 303.94 161.568C305.022 161.551 305.621 161.559 305.621 161.609Z" fill="#E0E0E0"/>
<path d="M245.426 215.935C245.409 215.944 245.31 215.769 245.135 215.429C244.943 215.022 244.702 214.524 244.419 213.918C243.804 212.597 242.963 210.671 241.948 208.271C239.926 203.479 237.339 196.761 234.585 189.32C231.831 181.871 229.31 175.145 227.388 170.32C226.448 167.97 225.674 166.044 225.1 164.607C224.851 163.984 224.651 163.469 224.485 163.046C224.351 162.689 224.285 162.498 224.31 162.481C224.326 162.473 224.426 162.647 224.601 162.996C224.792 163.403 225.034 163.901 225.317 164.507C225.932 165.828 226.773 167.754 227.788 170.154C229.809 174.946 232.397 181.664 235.151 189.104C237.905 196.553 240.426 203.271 242.348 208.105C243.288 210.455 244.062 212.381 244.636 213.818C244.885 214.441 245.085 214.956 245.251 215.379C245.376 215.736 245.443 215.927 245.426 215.935Z" fill="#E0E0E0"/>
<path d="M301.145 198.015C301.153 198.031 300.962 198.114 300.596 198.239C300.163 198.388 299.623 198.563 298.974 198.779C297.476 199.26 295.463 199.916 293.008 200.705C287.966 202.333 281.036 204.666 273.381 207.257C265.719 209.848 258.763 212.115 253.688 213.643C251.15 214.407 249.095 215.005 247.664 215.387C246.999 215.562 246.458 215.703 246.017 215.819C245.634 215.91 245.434 215.952 245.426 215.927C245.418 215.91 245.609 215.827 245.975 215.694C246.408 215.553 246.949 215.371 247.598 215.155C249.095 214.673 251.109 214.017 253.563 213.228C258.605 211.6 265.535 209.267 273.198 206.676C280.853 204.085 287.816 201.818 292.892 200.29C295.429 199.526 297.484 198.928 298.915 198.546C299.581 198.372 300.122 198.231 300.563 198.114C300.937 198.031 301.137 197.99 301.145 198.015Z" fill="#E0E0E0"/>
<path d="M87.8978 248.596C101.127 235.268 100.985 215.03 97.1663 197.5C96.5257 194.577 96.2844 191.413 94.4124 189.088C92.5404 186.763 88.9461 185.592 86.525 187.311C84.5199 188.739 84.029 191.454 83.1887 193.78C82.0655 196.877 80.0604 199.634 77.4728 201.627C75.7756 202.939 73.5541 203.961 71.5157 203.271C68.7202 202.333 67.7801 198.878 67.2559 195.947C66.2908 190.483 65.334 185.019 64.3689 179.563C63.853 176.631 63.3122 173.642 61.8978 171.026C60.4751 168.41 57.9957 166.201 55.0588 165.927C52.1218 165.653 48.9685 167.887 48.902 170.86C48.877 172.097 49.3429 173.293 49.4844 174.522C49.6258 175.751 49.3013 177.196 48.2114 177.752C47.1049 178.309 45.782 177.694 44.742 176.997C41.1727 174.589 38.4271 171.159 35.8146 167.721C33.2021 164.283 30.6313 160.745 27.2949 158.022C23.9586 155.298 19.6905 153.429 15.4473 153.961C11.2041 154.484 7.20214 157.889 6.88598 162.199C6.57814 166.517 9.74805 170.27 12.9845 173.135C17.7852 177.387 23.1932 180.933 28.9839 183.624C30.0322 184.113 31.1554 184.637 31.7129 185.658C32.7029 187.493 31.2053 189.769 29.3916 190.765C27.3365 191.886 24.9237 192.094 22.6857 192.775C20.4476 193.456 18.1513 194.917 17.6853 197.234C17.0281 200.448 20.1065 203.122 22.9519 204.733C28.6428 207.947 34.8745 210.172 41.2975 211.277C43.6021 211.675 45.9983 211.949 48.0117 213.145C50.0252 214.341 51.5561 216.782 50.8821 219.033C50.2082 221.292 47.629 222.438 45.2911 222.429C42.9532 222.421 40.7068 221.566 38.4105 221.142C34.1007 220.353 28.9506 221.582 27.0037 225.527C25.7225 228.118 26.1551 231.331 27.5113 233.897C28.8674 236.463 31.0389 238.498 33.277 240.325C41.1145 246.719 50.4994 251.303 60.4418 252.839C70.3925 254.376 79.2201 253.678 87.8978 248.596Z" fill="url(#paint0_linear_421_1545)"/>
<path d="M90.5102 261.625C88.5966 254.758 85.5515 246.786 81.3166 238.365C77.09 229.936 71.6903 221.084 65.7249 212.016C64.2273 209.757 62.7463 207.523 61.282 205.323C59.8177 203.13 58.37 200.955 56.8142 198.912C53.7275 194.818 50.4494 191.114 47.2295 187.693C44.0097 184.271 40.8231 181.141 37.8279 178.234C34.8244 175.336 31.9707 172.687 29.275 170.378C23.8836 165.745 19.0996 162.531 15.73 160.463C14.0411 159.417 12.7099 158.653 11.803 158.146C11.362 157.905 11.0209 157.714 10.763 157.573C10.53 157.449 10.4052 157.39 10.3969 157.399C10.3886 157.407 10.5051 157.482 10.7297 157.623C10.9793 157.772 11.3204 157.98 11.7447 158.237C12.635 158.777 13.9495 159.566 15.6219 160.637C18.9582 162.763 23.6839 166.019 29.0254 170.669C31.7044 172.986 34.5332 175.643 37.5201 178.558C40.4987 181.473 43.6686 184.612 46.8718 188.033C50.075 191.454 53.3281 195.15 56.3899 199.227C57.9291 201.262 59.3684 203.421 60.8327 205.621C62.2887 207.822 63.7697 210.056 65.2673 212.315C71.2244 221.375 76.6241 230.202 80.859 238.589C85.1105 246.968 88.1723 254.891 90.1275 261.725" fill="#263238"/>
<path d="M56.6637 198.92C56.7053 198.92 56.722 198.455 56.722 197.616C56.7303 196.777 56.697 195.565 56.6388 194.07C56.5223 191.081 56.2145 186.954 55.865 182.411C55.5156 177.86 55.266 173.75 55.1994 170.76C55.1578 169.265 55.1412 168.061 55.1329 167.223C55.1246 166.384 55.0996 165.927 55.0663 165.919C55.0247 165.919 54.9748 166.376 54.9249 167.214C54.8583 168.053 54.825 169.257 54.8167 170.76C54.7917 173.758 54.9748 177.894 55.3242 182.444C55.682 186.929 56.0065 190.989 56.2561 194.087C56.3559 195.49 56.4474 196.669 56.514 197.616C56.5722 198.463 56.6221 198.928 56.6637 198.92Z" fill="#263238"/>
<path d="M17.6681 198.745C17.6764 198.787 18.2255 198.745 19.2073 198.654C20.189 198.563 21.6117 198.43 23.3756 198.314C26.8949 198.056 31.7788 197.874 37.1618 197.907C42.5532 197.948 47.4287 198.197 50.9564 198.471C52.7202 198.596 54.1429 198.737 55.1247 198.829C56.1065 198.928 56.6556 198.961 56.6639 198.92C56.6722 198.878 56.1314 198.779 55.1497 198.613C54.1679 198.455 52.7452 198.256 50.9813 198.073C47.4537 197.691 42.5615 197.384 37.1535 197.342C31.7455 197.309 26.8533 197.558 23.3257 197.915C21.5618 198.081 20.1391 198.28 19.1657 198.43C18.2005 198.596 17.6597 198.704 17.6681 198.745Z" fill="#263238"/>
<path d="M80.7258 237.767C80.7424 237.776 80.8006 237.601 80.9005 237.261C81.0086 236.862 81.1418 236.372 81.2998 235.782C81.641 234.495 82.0819 232.627 82.5978 230.302C83.6294 225.66 84.8525 219.199 86.1088 212.057C87.3651 204.907 88.5299 198.447 89.4618 193.788C89.9194 191.521 90.3021 189.661 90.585 188.274C90.7014 187.676 90.8013 187.178 90.8845 186.771C90.9427 186.43 90.9677 186.239 90.9511 186.239C90.9344 186.239 90.8762 186.414 90.7763 186.746C90.6682 187.145 90.535 187.634 90.377 188.224C90.0358 189.511 89.5949 191.38 89.0791 193.705C88.0474 198.347 86.8243 204.808 85.568 211.949C84.3117 219.091 83.1469 225.552 82.2151 230.21C81.7491 232.477 81.3747 234.338 81.0918 235.724C80.9754 236.322 80.8755 236.821 80.7923 237.227C80.7341 237.576 80.7091 237.759 80.7258 237.767Z" fill="#263238"/>
<path d="M27.668 230.758C27.668 230.775 27.851 230.817 28.2004 230.875C28.6164 230.933 29.124 231.008 29.748 231.099C31.1707 231.29 33.0926 231.547 35.4305 231.863C40.2312 232.502 46.8456 233.474 54.1588 234.545C61.4721 235.625 68.1032 236.522 72.9204 237.07C75.3249 237.344 77.2801 237.543 78.628 237.651C79.252 237.701 79.7678 237.734 80.1838 237.767C80.5416 237.792 80.7246 237.792 80.7329 237.767C80.7329 237.751 80.5499 237.709 80.2004 237.651C79.7844 237.593 79.2769 237.518 78.6529 237.427C77.2302 237.236 75.3083 236.978 72.9704 236.663C68.1697 236.023 61.5553 235.06 54.242 233.981C46.9288 232.901 40.2977 232.004 35.4888 231.456C33.0843 231.182 31.1291 230.983 29.7812 230.875C29.1572 230.825 28.6414 230.783 28.2254 230.758C27.8593 230.734 27.668 230.734 27.668 230.758Z" fill="#263238"/>
<path d="M239.321 98.0566C241.892 96.0636 243.04 92.5426 242.508 89.3372C241.967 86.1317 239.896 83.3 237.216 81.4564C235.977 80.6094 234.438 79.9368 232.99 80.3603C231.642 80.7589 230.702 82.0627 230.427 83.4412C230.153 84.8197 230.452 86.248 230.91 87.5767C232.482 92.1357 234.854 96.2463 239.321 98.0566Z" fill="#455A64"/>
<path d="M243.54 105.829C248.606 101.212 256.003 99.2856 262.684 100.83C264.389 101.221 266.303 102.117 266.586 103.845C266.869 105.572 265.321 107.034 263.807 107.905C257.509 111.551 248.972 110.862 243.34 106.261" fill="#455A64"/>
<path d="M267.967 69.8471C265.155 69.0748 262.077 69.7724 259.589 71.2837C257.101 72.7951 255.154 75.0705 253.599 77.5285C250.587 82.2786 249.522 88.6728 249.389 94.2948C255.645 94.0457 260.987 89.1379 263.541 86.4722C267.576 82.2786 272.319 72.2304 267.967 69.8471Z" fill="#455A64"/>
<path d="M234.08 114.325C234.446 113.66 235.045 113.195 235.644 111.974C236.817 109.541 238.398 106.07 239.164 101.951C239.929 97.824 239.413 93.921 238.382 91.3799C237.882 90.1011 237.317 89.1295 236.867 88.515C236.418 87.8921 236.118 87.5932 236.094 87.6098C235.985 87.6762 237.092 88.9883 237.957 91.5294C238.847 94.0456 239.28 97.8157 238.54 101.843C237.791 105.871 236.302 109.317 235.228 111.792" fill="#263238"/>
<path d="M234.022 114.399C234.863 113.32 235.953 111.908 237.284 110.206C240.021 106.66 243.823 101.769 248.091 96.4207C252.36 91.0811 256.287 86.2895 259.14 82.8349C260.505 81.1658 261.645 79.7873 262.51 78.7327C263.3 77.7611 263.716 77.2047 263.691 77.1798C263.658 77.1548 263.176 77.6531 262.327 78.5749C261.478 79.4966 260.272 80.8585 258.808 82.5526C255.862 85.9407 251.877 90.6908 247.609 96.0387C243.341 101.387 239.588 106.328 236.943 109.948C235.62 111.759 234.555 113.228 233.848 114.267" fill="#263238"/>
<path d="M258.782 104.526C258.791 104.484 258.408 104.368 257.701 104.193C257.343 104.102 256.91 104.002 256.395 103.944C255.879 103.878 255.296 103.77 254.639 103.753C253.333 103.654 251.769 103.703 250.046 103.928C248.332 104.185 246.469 104.634 244.588 105.348C242.725 106.087 241.044 107.017 239.605 107.98C238.182 108.977 236.992 109.998 236.102 110.953C235.628 111.401 235.27 111.883 234.937 112.273C234.596 112.664 234.338 113.029 234.139 113.336C233.731 113.943 233.789 114.225 233.822 114.25C233.922 114.325 234.563 113.046 236.41 111.26C237.325 110.363 238.523 109.4 239.929 108.453C241.352 107.54 242.999 106.643 244.813 105.929C246.644 105.231 248.457 104.783 250.121 104.501C251.794 104.252 253.324 104.152 254.614 104.193C257.185 104.268 258.757 104.642 258.782 104.526Z" fill="#263238"/>
<path d="M210.286 377.436L98.9066 376.921C85.5114 376.863 74.7037 365.677 74.762 351.934L75.9767 65.5536C76.0349 51.8101 86.9507 40.7073 100.354 40.7738L211.734 41.2886C225.129 41.3468 235.937 52.5326 235.879 66.2761L234.664 352.656C234.597 366.4 223.69 377.502 210.286 377.436Z" fill="#263238"/>
<path d="M227.034 302.382C227.034 303.736 225.936 304.832 224.579 304.832C223.223 304.832 222.125 303.736 222.125 302.382C222.125 301.029 223.223 299.933 224.579 299.933C225.936 299.933 227.034 301.029 227.034 302.382Z" fill="#E0E0E0"/>
<path d="M224.587 307.755C224.471 307.755 224.371 306.551 224.371 305.073C224.371 303.586 224.471 302.382 224.587 302.382C224.704 302.382 224.804 303.586 224.804 305.073C224.804 306.551 224.704 307.755 224.587 307.755Z" fill="#E0E0E0"/>
<path d="M213.954 50.7389L191.682 50.6393C188.695 50.6227 186.265 53.1388 186.249 56.2612L186.232 60.2971C186.224 63.4112 183.786 65.9274 180.799 65.9191L137.385 65.7198C134.399 65.7032 131.986 63.1704 132.002 60.048L132.019 56.0121C132.036 52.898 129.623 50.3569 126.636 50.3403L118.799 50.3071L99.3048 50.2158C89.6203 50.1742 81.7413 57.9719 81.6997 67.6381L80.5099 348.23C80.4683 357.888 88.2808 365.752 97.957 365.802L212.615 366.333C222.299 366.375 230.178 358.577 230.22 348.911L231.41 68.319C231.435 58.6529 223.631 50.7887 213.954 50.7389Z" fill="#FAFAFA"/>
<path d="M88.1135 272.163C89.0869 271.432 137.043 250.348 137.043 250.348L81.0332 222.462L80.8418 267.372L88.1135 272.163Z" fill="#EBEBEB"/>
<path d="M91.0426 221.599L131.894 200.871L87.9891 176.573L81.225 178.267L81.0586 217.579L91.0426 221.599Z" fill="url(#paint1_linear_421_1545)"/>
<path opacity="0.7" d="M91.0426 221.599L131.894 200.871L87.9891 176.573L81.225 178.267L81.0586 217.579L91.0426 221.599Z" fill="white"/>
<path d="M82.6973 173.75L208.645 115.039L83.8621 74.3395L82.6973 173.75Z" fill="#EBEBEB"/>
<path d="M81.2344 326.647L138.784 297.167L224.455 347.474L204.046 365.337H130.938L81.2344 335.018V326.647Z" fill="#EBEBEB"/>
<path d="M150.115 293.978L221.285 336.098L229.222 335.201V294.701L190.218 274.098L150.115 293.978Z" fill="#EBEBEB"/>
<path d="M161.812 253.761L228.913 291.438V242.185L204.636 231.805L161.812 253.761Z" fill="#EBEBEB"/>
<path d="M90.1445 274.522L129.506 296.079L177.272 271.383L139.324 252.117L90.1445 274.522Z" fill="#EBEBEB"/>
<path d="M149.234 200.597L204.995 228.176L230.854 214.997L231.02 196.512L193.355 178.267L149.234 200.597Z" fill="#EBEBEB"/>
<path d="M92.207 224.655L147.968 252.233L173.826 239.054L173.993 220.569L136.32 202.325L92.207 224.655Z" fill="#EBEBEB"/>
<path d="M99.9375 175.087L145.373 197.799L187.755 175.087L143.842 155.09L99.9375 175.087Z" fill="#EBEBEB"/>
<path d="M187.754 320.228C187.746 320.245 187.463 320.104 186.931 319.813C186.398 319.514 185.608 319.074 184.576 318.493C182.513 317.305 179.476 315.553 175.557 313.286C167.72 308.702 156.346 302.042 142.144 293.729L141.454 293.322L142.177 292.957C154.607 286.646 169.484 279.097 186.007 270.71L185.999 271.715C175.865 266.325 164.824 260.454 153.268 254.301L152.236 253.753L153.276 253.205C167.503 245.747 182.854 237.709 198.745 229.388L198.753 230.542C197.039 229.679 195.184 228.74 193.329 227.802C155.231 208.511 119.98 190.657 91.492 176.233L90.5352 175.751L91.5003 175.294C114.039 164.565 132.601 155.729 145.539 149.568C152.012 146.52 157.079 144.145 160.54 142.517C162.27 141.729 163.593 141.114 164.492 140.707C164.933 140.516 165.274 140.367 165.507 140.259C165.74 140.159 165.856 140.118 165.864 140.134C165.873 140.142 165.765 140.217 165.54 140.333C165.315 140.45 164.983 140.624 164.558 140.848C163.676 141.297 162.37 141.944 160.673 142.8C157.245 144.486 152.22 146.952 145.797 150.108C132.901 156.369 114.405 165.346 91.9496 176.241L91.9579 175.294C120.479 189.661 155.764 207.432 193.903 226.648C195.758 227.586 197.614 228.524 199.327 229.388L200.451 229.953L199.336 230.534C183.436 238.838 168.078 246.869 153.842 254.301L153.85 253.205C165.39 259.383 176.414 265.287 186.531 270.71L187.496 271.225L186.515 271.715C169.95 280.019 155.032 287.493 142.568 293.729L142.593 292.957C156.704 301.411 168.019 308.187 175.807 312.854C179.676 315.204 182.671 317.023 184.709 318.26C185.708 318.883 186.473 319.365 186.997 319.688C187.513 320.029 187.763 320.212 187.754 320.228Z" fill="url(#paint2_linear_421_1545)"/>
<path d="M177.98 113.469C177.98 105.181 169.26 99.9332 160.366 104.085C158.361 105.024 156.697 106.61 155.69 108.561C153.452 112.888 154.442 117.829 156.472 121.923L163.395 139.428C164.393 141.953 167.971 141.936 168.952 139.403L175.741 121.807C178.079 116.459 177.98 113.469 177.98 113.469ZM169.626 120.677C163.653 124.148 157.587 117.738 160.865 111.41C161.298 110.571 161.972 109.865 162.762 109.4C168.736 105.929 174.801 112.34 171.523 118.668C171.091 119.506 170.417 120.22 169.626 120.677Z" fill="url(#paint3_linear_421_1545)"/>
<path d="M164.7 204.102L164.5 194.319L190.051 206.668V216.832L164.7 204.102Z" fill="#F5F5F5"/>
<path d="M190.051 206.668L221.783 190.931V201.884L190.051 216.832V206.668Z" fill="#E0E0E0"/>
<path d="M164.5 194.319L195.642 178.774L221.783 190.931L190.051 206.668L164.5 194.319Z" fill="#F5F5F5"/>
<path d="M167.836 198.546V203.288L170.332 204.409V199.875L167.836 198.546Z" fill="#FAFAFA"/>
<path d="M171.83 200.298V205.048L174.326 206.169V201.635L171.83 200.298Z" fill="#FAFAFA"/>
<path d="M84.3125 142.376V129.646L114.556 144.27V156.294L84.3125 142.376Z" fill="#E0E0E0"/>
<path d="M114.557 144.27L152.13 125.635V138.606L114.557 156.294V144.27Z" fill="#F5F5F5"/>
<path d="M84.3125 129.646L121.17 111.252L152.129 125.635L114.556 144.27L84.3125 129.646Z" fill="#FAFAFA"/>
<path d="M88.2637 134.645V140.267L91.2173 141.596V136.223L88.2637 134.645Z" fill="#FAFAFA"/>
<path d="M92.9902 136.729V142.343L95.9522 143.68V138.307L92.9902 136.729Z" fill="#FAFAFA"/>
<path d="M175.482 248.787C175.482 249.385 175.482 258.818 175.482 258.818L186.257 264.125V253.761L175.482 248.787Z" fill="#E0E0E0"/>
<path d="M200.025 247.192L186.256 253.761V264.125L200.025 256.452V247.192Z" fill="#E0E0E0"/>
<path d="M175.482 248.787L189.127 242.185L200.026 247.192L186.257 253.761L175.482 248.787Z" fill="#F5F5F5"/>
<path d="M179.311 255.987V260.728L181.807 261.858V257.315L179.311 255.987Z" fill="#FAFAFA"/>
<path d="M88.4141 243.597C88.4141 244.195 88.4141 253.628 88.4141 253.628L99.1968 258.935V248.571L88.4141 243.597Z" fill="#E0E0E0"/>
<path d="M112.965 242.002L99.1875 248.571V258.935L112.965 251.261V242.002Z" fill="#E0E0E0"/>
<path d="M88.4141 243.597L102.067 236.995L112.966 242.002L99.1885 248.571L88.4141 243.597Z" fill="#F5F5F5"/>
<path d="M92.2422 250.796V255.538L94.7382 256.668V252.133L92.2422 250.796Z" fill="#FAFAFA"/>
<path d="M133.102 177.379C133.102 177.977 133.102 187.41 133.102 187.41L143.884 192.717V182.361L133.102 177.379Z" fill="#F5F5F5"/>
<path d="M157.653 175.784L143.875 182.361V192.725L157.653 185.052V175.784Z" fill="#E0E0E0"/>
<path d="M133.102 177.379L146.755 170.785L157.654 175.784L143.876 182.361L133.102 177.379Z" fill="#F5F5F5"/>
<path d="M136.93 184.587V189.328L139.426 190.458V185.915L136.93 184.587Z" fill="#E0E0E0"/>
<path d="M121.121 263.352C121.121 263.95 121.121 273.384 121.121 273.384L131.904 278.69V268.327L121.121 263.352Z" fill="#E0E0E0"/>
<path d="M145.672 261.758L131.895 268.335V278.69L145.672 271.026V261.758Z" fill="#EBEBEB"/>
<path d="M121.121 263.352L134.774 256.759L145.673 261.758L131.895 268.335L121.121 263.352Z" fill="#F5F5F5"/>
<path d="M124.949 270.552V275.302L127.445 276.423V271.889L124.949 270.552Z" fill="#FAFAFA"/>
<path d="M165.615 287.592C165.615 288.34 165.615 300.173 165.615 300.173L188.329 313.527V300.53L165.615 287.592Z" fill="#F5F5F5"/>
<path d="M205.6 291.246L188.328 300.53V313.518L205.6 303.902V291.246Z" fill="#E0E0E0"/>
<path d="M165.615 287.593L182.738 279.313L205.601 291.246L188.329 300.531L165.615 287.593Z" fill="#FAFAFA"/>
<path d="M174.193 299.227V305.173L177.322 307.049V301.17L174.193 299.227Z" fill="#FAFAFA"/>
<path d="M110.979 313.485C110.979 314.233 110.979 326.066 110.979 326.066L133.692 339.419V326.432L110.979 313.485Z" fill="#E0E0E0"/>
<path d="M160.798 311.766L133.691 326.423V339.419L160.873 324.38L160.798 311.766Z" fill="#FAFAFA"/>
<path d="M110.979 313.485L139.649 299.625L160.874 311.816L133.692 326.423L110.979 313.485Z" fill="#F5F5F5"/>
<path d="M119.557 325.119V331.065L122.685 332.95V327.063L119.557 325.119Z" fill="#FAFAFA"/>
<path d="M196.957 266.442V316.691L211.134 324.007V273.126L196.957 266.442Z" fill="#F5F5F5"/>
<path d="M207.432 261.625L196.957 266.442L211.134 273.126L220.669 267.762L207.432 261.625Z" fill="#FAFAFA"/>
<path d="M211.135 273.126V324.007L219.763 319.373L220.669 267.762L211.135 273.126Z" fill="#E0E0E0"/>
<path d="M137.043 225.742V275.991L151.22 283.307V232.427L137.043 225.742Z" fill="#F5F5F5"/>
<path d="M147.51 220.918L137.043 225.742L151.22 232.427L160.755 227.063L147.51 220.918Z" fill="#FAFAFA"/>
<path d="M151.221 232.427V283.307L159.84 279.064L160.755 227.063L151.221 232.427Z" fill="#E0E0E0"/>
<path d="M143.477 321.299C143.477 322.047 143.477 333.88 143.477 333.88L166.19 347.234V334.246L143.477 321.299Z" fill="#E0E0E0"/>
<path d="M183.463 324.962L166.199 334.246V347.234L183.463 337.617V324.962Z" fill="#FAFAFA"/>
<path d="M143.477 321.299L160.799 311.766L183.462 324.962L166.198 334.246L143.477 321.299Z" fill="#F5F5F5"/>
<path d="M152.055 332.934V338.888L155.191 340.765V334.877L152.055 332.934Z" fill="#FAFAFA"/>
<path d="M193.996 171.3L152.629 152.69L210.237 123.426L229.14 151.561L193.996 171.3Z" fill="#EBEBEB"/>
<path d="M230.82 188.39L231.103 156.17L199.029 174.389L230.82 188.39Z" fill="url(#paint4_linear_421_1545)"/>
<path d="M206.45 220.66C206.45 222.014 205.352 223.11 203.995 223.11C202.639 223.11 201.541 222.014 201.541 220.66C201.541 219.307 202.639 218.211 203.995 218.211C205.343 218.211 206.45 219.307 206.45 220.66Z" fill="#E0E0E0"/>
<path d="M203.996 226.033C203.879 226.033 203.779 224.829 203.779 223.351C203.779 221.864 203.879 220.669 203.996 220.669C204.112 220.669 204.212 221.873 204.212 223.351C204.212 224.829 204.112 226.033 203.996 226.033Z" fill="#E0E0E0"/>
<path d="M139.499 214.656C139.499 216.01 138.4 217.106 137.044 217.106C135.688 217.106 134.59 216.01 134.59 214.656C134.59 213.303 135.688 212.207 137.044 212.207C138.4 212.207 139.499 213.303 139.499 214.656Z" fill="#E0E0E0"/>
<path d="M137.044 220.029C136.928 220.029 136.828 218.825 136.828 217.347C136.828 215.86 136.928 214.656 137.044 214.656C137.161 214.656 137.261 215.86 137.261 217.347C137.261 218.825 137.161 220.029 137.044 220.029Z" fill="#E0E0E0"/>
<path d="M106.702 248.853C106.702 250.207 105.604 251.303 104.247 251.303C102.891 251.303 101.793 250.207 101.793 248.853C101.793 247.5 102.891 246.404 104.247 246.404C105.604 246.404 106.702 247.5 106.702 248.853Z" fill="#E0E0E0"/>
<path d="M104.248 254.226C104.131 254.226 104.031 253.022 104.031 251.544C104.031 250.057 104.131 248.853 104.248 248.853C104.364 248.853 104.464 250.057 104.464 251.544C104.464 253.022 104.372 254.226 104.248 254.226Z" fill="#E0E0E0"/>
<path d="M109.155 222.462C109.155 223.816 108.057 224.912 106.7 224.912C105.344 224.912 104.246 223.816 104.246 222.462C104.246 221.109 105.344 220.013 106.7 220.013C108.057 220.013 109.155 221.109 109.155 222.462Z" fill="#E0E0E0"/>
<path d="M106.701 227.835C106.584 227.835 106.484 226.631 106.484 225.153C106.484 223.666 106.584 222.462 106.701 222.462C106.817 222.462 106.917 223.666 106.917 225.153C106.917 226.631 106.817 227.835 106.701 227.835Z" fill="#E0E0E0"/>
<path d="M169.725 220.037C169.725 221.391 168.627 222.487 167.271 222.487C165.915 222.487 164.816 221.391 164.816 220.037C164.816 218.684 165.915 217.588 167.271 217.588C168.627 217.596 169.725 218.692 169.725 220.037Z" fill="#E0E0E0"/>
<path d="M167.271 225.41C167.155 225.41 167.055 224.206 167.055 222.728C167.055 221.242 167.155 220.046 167.271 220.046C167.387 220.046 167.487 221.25 167.487 222.728C167.487 224.215 167.387 225.41 167.271 225.41Z" fill="#E0E0E0"/>
<path d="M208.487 238.39C208.487 239.744 207.389 240.84 206.033 240.84C204.676 240.84 203.578 239.744 203.578 238.39C203.578 237.036 204.676 235.94 206.033 235.94C207.389 235.94 208.487 237.036 208.487 238.39Z" fill="#E0E0E0"/>
<path d="M206.033 243.763C205.916 243.763 205.816 242.559 205.816 241.081C205.816 239.594 205.916 238.39 206.033 238.39C206.149 238.39 206.249 239.594 206.249 241.081C206.249 242.559 206.149 243.763 206.033 243.763Z" fill="#E0E0E0"/>
<path d="M210.051 252.798C210.051 254.151 208.953 255.247 207.597 255.247C206.241 255.247 205.143 254.151 205.143 252.798C205.143 251.444 206.241 250.348 207.597 250.348C208.953 250.348 210.051 251.444 210.051 252.798Z" fill="#E0E0E0"/>
<path d="M207.597 258.171C207.481 258.171 207.381 256.966 207.381 255.488C207.381 254.002 207.481 252.798 207.597 252.798C207.714 252.798 207.814 254.002 207.814 255.488C207.814 256.966 207.722 258.171 207.597 258.171Z" fill="#E0E0E0"/>
<path d="M141.237 282.693C141.237 284.047 140.139 285.143 138.783 285.143C137.426 285.143 136.328 284.047 136.328 282.693C136.328 281.34 137.426 280.243 138.783 280.243C140.139 280.243 141.237 281.34 141.237 282.693Z" fill="#E0E0E0"/>
<path d="M138.783 288.066C138.666 288.066 138.566 286.862 138.566 285.384C138.566 283.897 138.666 282.693 138.783 282.693C138.899 282.693 138.999 283.897 138.999 285.384C138.999 286.862 138.908 288.066 138.783 288.066Z" fill="#E0E0E0"/>
<path d="M219.411 327.851C220.767 327.851 221.866 326.755 221.866 325.402C221.866 324.049 220.767 322.952 219.411 322.952C218.056 322.952 216.957 324.049 216.957 325.402C216.957 326.755 218.056 327.851 219.411 327.851Z" fill="#E0E0E0"/>
<path d="M219.412 330.775C219.295 330.775 219.195 329.57 219.195 328.092C219.195 326.606 219.295 325.402 219.412 325.402C219.528 325.402 219.628 326.606 219.628 328.092C219.628 329.57 219.528 330.775 219.412 330.775Z" fill="#E0E0E0"/>
<path d="M174.967 352.191C174.967 353.545 173.869 354.641 172.513 354.641C171.157 354.641 170.059 353.545 170.059 352.191C170.059 350.838 171.157 349.741 172.513 349.741C173.869 349.741 174.967 350.838 174.967 352.191Z" fill="#E0E0E0"/>
<path d="M172.513 357.564C172.397 357.564 172.297 356.36 172.297 354.882C172.297 353.395 172.397 352.199 172.513 352.199C172.63 352.199 172.73 353.404 172.73 354.882C172.73 356.36 172.63 357.564 172.513 357.564Z" fill="#E0E0E0"/>
<path d="M156.073 344.792C156.073 346.146 154.975 347.242 153.618 347.242C152.262 347.242 151.164 346.146 151.164 344.792C151.164 343.438 152.262 342.342 153.618 342.342C154.975 342.342 156.073 343.438 156.073 344.792Z" fill="#E0E0E0"/>
<path d="M153.619 350.165C153.502 350.165 153.402 348.961 153.402 347.483C153.402 345.996 153.502 344.792 153.619 344.792C153.735 344.792 153.835 345.996 153.835 347.483C153.843 348.961 153.743 350.165 153.619 350.165Z" fill="#E0E0E0"/>
<path d="M199.411 339.419C199.411 340.773 198.312 341.869 196.956 341.869C195.6 341.869 194.502 340.773 194.502 339.419C194.502 338.066 195.6 336.969 196.956 336.969C198.312 336.969 199.411 338.066 199.411 339.419Z" fill="#E0E0E0"/>
<path d="M196.957 344.792C196.84 344.792 196.74 343.588 196.74 342.11C196.74 340.623 196.84 339.428 196.957 339.428C197.073 339.428 197.173 340.632 197.173 342.11C197.173 343.588 197.081 344.792 196.957 344.792Z" fill="#E0E0E0"/>
<path d="M160.007 294.693C161.363 294.693 162.462 293.596 162.462 292.243C162.462 290.89 161.363 289.793 160.007 289.793C158.652 289.793 157.553 290.89 157.553 292.243C157.553 293.596 158.652 294.693 160.007 294.693Z" fill="#E0E0E0"/>
<path d="M160.007 297.616C159.891 297.616 159.791 296.412 159.791 294.933C159.791 293.447 159.891 292.243 160.007 292.243C160.124 292.243 160.224 293.447 160.224 294.933C160.224 296.412 160.124 297.616 160.007 297.616Z" fill="#E0E0E0"/>
<path d="M168.653 268.335C168.653 269.689 167.555 270.785 166.199 270.785C164.842 270.785 163.744 269.689 163.744 268.335C163.744 266.981 164.842 265.885 166.199 265.885C167.555 265.885 168.653 266.981 168.653 268.335Z" fill="#E0E0E0"/>
<path d="M166.199 273.708C166.082 273.708 165.982 272.504 165.982 271.026C165.982 269.539 166.082 268.335 166.199 268.335C166.315 268.335 166.415 269.539 166.415 271.026C166.415 272.504 166.315 273.708 166.199 273.708Z" fill="#E0E0E0"/>
<path d="M109.155 271.026C109.155 272.379 108.057 273.475 106.7 273.475C105.344 273.475 104.246 272.379 104.246 271.026C104.246 269.672 105.344 268.576 106.7 268.576C108.057 268.576 109.155 269.672 109.155 271.026Z" fill="#E0E0E0"/>
<path d="M106.701 276.398C106.584 276.398 106.484 275.194 106.484 273.716C106.484 272.23 106.584 271.026 106.701 271.026C106.817 271.026 106.917 272.23 106.917 273.716C106.917 275.194 106.817 276.398 106.701 276.398Z" fill="#E0E0E0"/>
<path d="M222.491 248.853C222.491 250.207 221.393 251.303 220.036 251.303C218.68 251.303 217.582 250.207 217.582 248.853C217.582 247.5 218.68 246.403 220.036 246.403C221.393 246.403 222.491 247.5 222.491 248.853Z" fill="#E0E0E0"/>
<path d="M220.037 254.226C219.92 254.226 219.82 253.022 219.82 251.544C219.82 250.057 219.92 248.853 220.037 248.853C220.153 248.853 220.253 250.057 220.253 251.544C220.253 253.022 220.153 254.226 220.037 254.226Z" fill="#E0E0E0"/>
<path d="M215.909 212.207C215.909 213.56 214.811 214.656 213.454 214.656C212.098 214.656 211 213.56 211 212.207C211 210.853 212.098 209.757 213.454 209.757C214.811 209.757 215.909 210.853 215.909 212.207Z" fill="#E0E0E0"/>
<path d="M213.455 217.579C213.338 217.579 213.238 216.375 213.238 214.897C213.238 213.411 213.338 212.207 213.455 212.207C213.571 212.207 213.671 213.411 213.671 214.897C213.671 216.375 213.571 217.579 213.455 217.579Z" fill="#E0E0E0"/>
<path d="M163.759 182.27C165.115 182.27 166.213 181.173 166.213 179.82C166.213 178.467 165.115 177.37 163.759 177.37C162.404 177.37 161.305 178.467 161.305 179.82C161.305 181.173 162.404 182.27 163.759 182.27Z" fill="#E0E0E0"/>
<path d="M163.759 185.193C163.643 185.193 163.543 183.989 163.543 182.511C163.543 181.024 163.643 179.82 163.759 179.82C163.876 179.82 163.976 181.024 163.976 182.511C163.976 183.989 163.876 185.193 163.759 185.193Z" fill="#E0E0E0"/>
<path d="M119.29 226.033C119.29 227.387 118.191 228.483 116.835 228.483C115.479 228.483 114.381 227.387 114.381 226.033C114.381 224.68 115.479 223.583 116.835 223.583C118.191 223.583 119.29 224.68 119.29 226.033Z" fill="#E0E0E0"/>
<path d="M116.835 231.406C116.719 231.406 116.619 230.202 116.619 228.724C116.619 227.237 116.719 226.033 116.835 226.033C116.952 226.033 117.052 227.237 117.052 228.724C117.06 230.202 116.96 231.406 116.835 231.406Z" fill="#E0E0E0"/>
<path d="M148.126 162.34C148.126 163.693 147.027 164.789 145.671 164.789C144.315 164.789 143.217 163.693 143.217 162.34C143.217 160.986 144.315 159.89 145.671 159.89C147.027 159.89 148.126 160.986 148.126 162.34Z" fill="#E0E0E0"/>
<path d="M145.671 167.712C145.555 167.712 145.455 166.508 145.455 165.03C145.455 163.544 145.555 162.34 145.671 162.34C145.788 162.34 145.888 163.544 145.888 165.03C145.888 166.508 145.788 167.712 145.671 167.712Z" fill="#E0E0E0"/>
<path d="M198.171 156.967C198.171 158.32 197.072 159.417 195.716 159.417C194.36 159.417 193.262 158.32 193.262 156.967C193.262 155.613 194.36 154.517 195.716 154.517C197.072 154.517 198.171 155.613 198.171 156.967Z" fill="#E0E0E0"/>
<path d="M195.716 162.34C195.6 162.34 195.5 161.136 195.5 159.657C195.5 158.171 195.6 156.967 195.716 156.967C195.833 156.967 195.933 158.171 195.933 159.657C195.933 161.136 195.841 162.34 195.716 162.34Z" fill="#E0E0E0"/>
<path d="M212.008 154.708C212.008 156.062 210.91 157.158 209.554 157.158C208.198 157.158 207.1 156.062 207.1 154.708C207.1 153.354 208.198 152.258 209.554 152.258C210.91 152.258 212.008 153.354 212.008 154.708Z" fill="#E0E0E0"/>
<path d="M209.554 160.081C209.438 160.081 209.338 158.877 209.338 157.399C209.338 155.912 209.438 154.708 209.554 154.708C209.671 154.708 209.771 155.912 209.771 157.399C209.771 158.877 209.671 160.081 209.554 160.081Z" fill="#E0E0E0"/>
<path d="M206.45 136.638C206.45 137.992 205.352 139.088 203.995 139.088C202.639 139.088 201.541 137.992 201.541 136.638C201.541 135.284 202.639 134.188 203.995 134.188C205.343 134.188 206.45 135.284 206.45 136.638Z" fill="#E0E0E0"/>
<path d="M203.996 142.011C203.879 142.011 203.779 140.807 203.779 139.329C203.779 137.842 203.879 136.638 203.996 136.638C204.112 136.638 204.212 137.842 204.212 139.329C204.212 140.807 204.112 142.011 203.996 142.011Z" fill="#E0E0E0"/>
<path d="M129.381 178.267C129.381 179.621 128.283 180.717 126.927 180.717C125.571 180.717 124.473 179.621 124.473 178.267C124.473 176.914 125.571 175.817 126.927 175.817C128.283 175.817 129.381 176.914 129.381 178.267Z" fill="#E0E0E0"/>
<path d="M126.927 183.64C126.811 183.64 126.711 182.436 126.711 180.958C126.711 179.471 126.811 178.267 126.927 178.267C127.044 178.267 127.144 179.471 127.144 180.958C127.144 182.436 127.052 183.64 126.927 183.64Z" fill="#E0E0E0"/>
<path d="M186.424 155.09C186.424 156.444 185.326 157.54 183.97 157.54C182.614 157.54 181.516 156.444 181.516 155.09C181.516 153.736 182.614 152.64 183.97 152.64C185.326 152.64 186.424 153.736 186.424 155.09Z" fill="#E0E0E0"/>
<path d="M183.97 160.463C183.854 160.463 183.754 159.259 183.754 157.781C183.754 156.294 183.854 155.09 183.97 155.09C184.087 155.09 184.187 156.294 184.187 157.781C184.187 159.259 184.095 160.463 183.97 160.463Z" fill="#E0E0E0"/>
<path d="M117.51 99.9166C117.51 101.27 116.412 102.366 115.056 102.366C113.7 102.366 112.602 101.27 112.602 99.9166C112.602 98.563 113.7 97.4669 115.056 97.4669C116.412 97.4669 117.51 98.563 117.51 99.9166Z" fill="#E0E0E0"/>
<path d="M115.056 105.281C114.94 105.281 114.84 104.077 114.84 102.599C114.84 101.112 114.94 99.9083 115.056 99.9083C115.173 99.9083 115.272 101.112 115.272 102.599C115.272 104.085 115.181 105.281 115.056 105.281Z" fill="#E0E0E0"/>
<path d="M145.672 113.328C145.672 114.682 144.574 115.778 143.218 115.778C141.862 115.778 140.764 114.682 140.764 113.328C140.764 111.974 141.862 110.878 143.218 110.878C144.574 110.878 145.672 111.974 145.672 113.328Z" fill="#E0E0E0"/>
<path d="M143.218 118.701C143.102 118.701 143.002 117.497 143.002 116.019C143.002 114.532 143.102 113.328 143.218 113.328C143.335 113.328 143.435 114.532 143.435 116.019C143.435 117.497 143.335 118.701 143.218 118.701Z" fill="#E0E0E0"/>
<path d="M100.911 155.696C100.911 157.05 99.8125 158.146 98.4564 158.146C97.1002 158.146 96.002 157.05 96.002 155.696C96.002 154.343 97.1002 153.246 98.4564 153.246C99.8125 153.246 100.911 154.343 100.911 155.696Z" fill="#E0E0E0"/>
<path d="M98.4565 161.069C98.3401 161.069 98.2402 159.865 98.2402 158.387C98.2402 156.9 98.3401 155.696 98.4565 155.696C98.573 155.696 98.6729 156.9 98.6729 158.387C98.6729 159.865 98.573 161.069 98.4565 161.069Z" fill="#E0E0E0"/>
<path d="M103.366 115.778C103.366 117.131 102.268 118.228 100.911 118.228C99.5553 118.228 98.457 117.131 98.457 115.778C98.457 114.424 99.5553 113.328 100.911 113.328C102.268 113.328 103.366 114.424 103.366 115.778Z" fill="#E0E0E0"/>
<path d="M100.912 121.151C100.795 121.151 100.695 119.947 100.695 118.468C100.695 116.982 100.795 115.778 100.912 115.778C101.028 115.778 101.128 116.982 101.128 118.468C101.128 119.947 101.028 121.151 100.912 121.151Z" fill="#E0E0E0"/>
<path d="M208.988 230.003L229.223 219.298L229.139 238.606L208.988 230.003Z" fill="#EBEBEB"/>
<path d="M124.946 298.463L80.6172 321.299V278.69L85.5343 276.506L124.946 298.463Z" fill="#EBEBEB"/>
<path d="M191.158 321.299C191.158 322.861 189.893 324.123 188.329 324.123C186.765 324.123 185.5 322.861 185.5 321.299C185.5 319.738 186.765 318.476 188.329 318.476C189.893 318.476 191.158 319.738 191.158 321.299Z" fill="url(#paint5_linear_421_1545)"/>
<path d="M217.041 119.764L231.16 124.049V146.254L217.041 119.764Z" fill="#EBEBEB"/>
<path d="M231.301 90.101L231.218 65.8692C230.061 57.3657 222.798 50.7804 213.954 50.7389L191.681 50.6393C188.694 50.6226 186.265 53.1388 186.248 56.2612L186.231 60.2971C186.223 63.4112 183.785 65.9274 180.798 65.9191L137.385 65.7198C134.398 65.7032 131.985 63.1704 132.002 60.048L132.018 56.0121C132.035 52.898 129.622 50.3569 126.635 50.3403L118.798 50.3071L99.304 50.2157C94.728 50.1908 90.5597 51.943 87.4314 54.7997C85.4762 58.5532 83.3463 63.8928 84.3197 67.9951L231.201 115.72L231.301 90.101Z" fill="url(#paint6_linear_421_1545)"/>
<path opacity="0.7" d="M231.301 90.101L231.218 65.8692C230.061 57.3657 222.798 50.7804 213.954 50.7389L191.681 50.6393C188.694 50.6226 186.265 53.1388 186.248 56.2612L186.231 60.2971C186.223 63.4112 183.785 65.9274 180.798 65.9191L137.385 65.7198C134.398 65.7032 131.985 63.1704 132.002 60.048L132.018 56.0121C132.035 52.898 129.622 50.3569 126.635 50.3403L118.798 50.3071L99.304 50.2157C94.728 50.1908 90.5597 51.943 87.4314 54.7997C85.4762 58.5532 83.3463 63.8928 84.3197 67.9951L231.201 115.72L231.301 90.101Z" fill="white"/>
<path d="M213.954 50.7389C213.954 50.7389 214.154 50.7389 214.553 50.7638C214.953 50.8053 215.552 50.7638 216.325 50.9133C217.881 51.1043 220.236 51.6192 222.89 53.2053C224.229 53.9693 225.586 55.0571 226.875 56.4522C228.156 57.8473 229.346 59.5995 230.187 61.6839C231.043 63.7683 231.501 66.1931 231.468 68.784C231.459 71.3666 231.451 74.1154 231.443 77.0301C231.36 100.34 231.243 134.064 231.093 175.734C230.927 217.405 230.736 267.023 230.519 322.122C230.494 329.006 230.461 335.981 230.436 343.032C230.428 344.792 230.419 346.561 230.411 348.338C230.386 350.115 230.261 351.942 229.721 353.661C229.213 355.388 228.489 357.066 227.466 358.577C226.451 360.08 225.219 361.442 223.805 362.596C220.951 364.864 217.382 366.3 213.688 366.466C212.764 366.524 211.849 366.516 210.934 366.508L208.188 366.499C206.358 366.491 204.519 366.483 202.672 366.475C195.301 366.441 187.863 366.408 180.35 366.375C165.332 366.308 150.048 366.234 134.54 366.167C126.786 366.134 118.973 366.093 111.111 366.059C107.175 366.043 103.232 366.026 99.2796 366.001C95.311 366.184 91.2009 365.129 87.8979 362.812C84.5782 360.52 82.1321 357.058 81.0006 353.221C80.3932 351.311 80.2851 349.276 80.2934 347.308C80.3017 345.34 80.3101 343.372 80.3184 341.412C80.3517 333.565 80.3849 325.759 80.4182 318.019C80.4848 302.532 80.5513 287.277 80.6179 272.288C80.751 242.301 80.8758 213.377 81.0006 185.832C81.1254 158.279 81.2419 132.096 81.35 107.598C81.4083 95.3493 81.4582 83.5158 81.5164 72.1389C81.5248 70.7189 81.5331 69.2989 81.5331 67.8955C81.5497 67.1896 81.5996 66.4838 81.6412 65.7779C81.766 65.0803 81.8243 64.3745 82.0073 63.6935C82.6563 60.9614 83.9376 58.4037 85.718 56.3028C87.5152 54.2101 89.7616 52.5658 92.2326 51.4863C94.7036 50.3901 97.4076 50.0081 100.02 50.0497C105.237 50.0746 110.337 50.0995 115.296 50.1244C117.775 50.141 120.229 50.1493 122.642 50.1659C123.849 50.1742 125.055 50.1825 126.245 50.1825C127.451 50.1244 128.699 50.4649 129.681 51.1541C130.663 51.8434 131.42 52.8399 131.811 53.961C132.252 55.082 132.144 56.2944 132.152 57.4072C132.152 57.9802 132.144 58.5449 132.144 59.1096C132.144 59.6743 132.119 60.239 132.194 60.7787C132.327 61.8666 132.784 62.9046 133.491 63.7184C134.19 64.5406 135.147 65.1385 136.171 65.3959C136.686 65.5288 137.211 65.5703 137.751 65.562C138.292 65.562 138.833 65.5703 139.365 65.5703C141.512 65.5786 143.617 65.5952 145.689 65.6035C153.984 65.645 161.696 65.6865 168.802 65.7281C172.354 65.7447 175.749 65.7696 178.994 65.7862C179.801 65.7779 180.616 65.8277 181.381 65.7613C182.155 65.6782 182.896 65.4125 183.536 65.0139C184.826 64.2167 185.708 62.888 186.016 61.4929C186.182 60.7954 186.157 60.0729 186.165 59.367C186.165 58.6612 186.174 57.9636 186.174 57.2743C186.182 56.5934 186.149 55.9041 186.274 55.2398C186.39 54.5755 186.623 53.9443 186.939 53.3714C187.571 52.2254 188.603 51.3617 189.743 50.9216C190.891 50.4317 192.114 50.5811 193.221 50.5645C197.714 50.5894 201.516 50.6143 204.586 50.6393C207.656 50.6642 210.002 50.6808 211.575 50.6891C213.147 50.7223 213.954 50.7389 213.954 50.7389C213.954 50.7389 213.147 50.7472 211.575 50.7472C209.994 50.7472 207.656 50.7389 204.586 50.7389C201.516 50.7306 197.705 50.7223 193.221 50.7057C192.106 50.7306 190.908 50.5811 189.793 51.0628C188.686 51.4946 187.688 52.3416 187.072 53.4627C186.764 54.0191 186.54 54.6336 186.423 55.2813C186.299 55.9291 186.34 56.6017 186.332 57.291C186.332 57.9802 186.323 58.6778 186.323 59.3836C186.315 60.0895 186.348 60.8203 186.182 61.5427C185.874 62.9877 184.967 64.3579 183.636 65.18C182.971 65.5952 182.205 65.8692 181.406 65.9606C180.599 66.027 179.809 65.9772 178.994 65.9855C175.757 65.9772 172.354 65.9606 168.802 65.944C161.696 65.9191 153.984 65.8858 145.689 65.8526C143.617 65.8443 141.504 65.836 139.365 65.8277C138.833 65.8277 138.292 65.8194 137.751 65.8194C137.219 65.8277 136.645 65.7862 136.104 65.6533C135.022 65.3793 134.016 64.7648 133.292 63.9011C132.551 63.0458 132.069 61.9579 131.927 60.8203C131.852 60.2473 131.877 59.6743 131.877 59.1179C131.877 58.5532 131.877 57.9885 131.886 57.4155C131.877 56.2778 131.977 55.1235 131.553 54.0606C131.187 52.9894 130.463 52.0427 129.523 51.3866C128.574 50.7306 127.426 50.415 126.245 50.4649C125.055 50.4566 123.849 50.4566 122.642 50.4483C120.221 50.44 117.775 50.4317 115.296 50.415C110.329 50.3984 105.237 50.3735 100.02 50.3486C97.4243 50.3071 94.7868 50.6891 92.3574 51.7686C89.9363 52.8316 87.7315 54.4509 85.9676 56.5021C84.2204 58.5698 82.9641 61.0777 82.3318 63.76C82.1488 64.4243 82.0988 65.1219 81.974 65.8028C81.9324 66.4921 81.8825 67.1896 81.8742 67.8872C81.8659 69.2906 81.8659 70.7106 81.8576 72.1306C81.816 83.5075 81.766 95.3327 81.7161 107.59C81.6163 132.096 81.5164 158.271 81.4083 185.824C81.2918 213.378 81.1753 242.301 81.0588 272.28C81.0006 287.269 80.934 302.532 80.8675 318.011C80.8342 325.751 80.8009 333.556 80.7676 341.404C80.7593 343.364 80.751 345.332 80.7427 347.3C80.7344 349.26 80.8342 351.22 81.4332 353.088C82.5398 356.825 84.9193 360.205 88.1641 362.447C91.4089 364.697 95.3609 365.735 99.3046 365.553C103.265 365.569 107.209 365.586 111.136 365.611C118.998 365.644 126.811 365.686 134.565 365.719C150.073 365.794 165.357 365.86 180.375 365.935C187.879 365.968 195.326 366.001 202.697 366.043C204.536 366.051 206.375 366.059 208.213 366.068L210.959 366.084C211.874 366.093 212.789 366.101 213.688 366.043C217.299 365.885 220.785 364.473 223.572 362.264C224.953 361.135 226.16 359.806 227.15 358.336C228.148 356.867 228.855 355.222 229.355 353.537C229.887 351.842 230.003 350.082 230.037 348.321C230.045 346.544 230.053 344.784 230.062 343.015C230.095 335.965 230.12 328.989 230.153 322.105C230.403 267.006 230.627 217.388 230.819 175.718C231.027 134.047 231.193 100.324 231.31 77.0135C231.326 74.0987 231.343 71.35 231.351 68.7674C231.393 66.1931 230.944 63.7849 230.095 61.7088C229.263 59.6328 228.09 57.8972 226.817 56.5021C225.544 55.1069 224.196 54.0191 222.865 53.2551C220.236 51.6607 217.89 51.1292 216.342 50.9299C215.568 50.7721 214.969 50.8136 214.57 50.7638C214.154 50.7638 213.954 50.7389 213.954 50.7389Z" fill="#263238"/>
</g>
<defs>
<linearGradient id="paint0_linear_421_1545" x1="53.1373" y1="153.87" x2="53.1373" y2="253.561" gradientUnits="userSpaceOnUse">
<stop offset="0.025" stop-color="#0E327E"/>
<stop offset="0.56" stop-color="#2144B4"/>
<stop offset="1" stop-color="#826BC5"/>
</linearGradient>
<linearGradient id="paint1_linear_421_1545" x1="106.476" y1="176.573" x2="106.476" y2="221.599" gradientUnits="userSpaceOnUse">
<stop offset="0.025" stop-color="#0E327E"/>
<stop offset="0.56" stop-color="#2144B4"/>
<stop offset="1" stop-color="#826BC5"/>
</linearGradient>
<linearGradient id="paint2_linear_421_1545" x1="145.493" y1="140.131" x2="145.493" y2="320.23" gradientUnits="userSpaceOnUse">
<stop offset="0.025" stop-color="#0E327E"/>
<stop offset="0.56" stop-color="#2144B4"/>
<stop offset="1" stop-color="#826BC5"/>
</linearGradient>
<linearGradient id="paint3_linear_421_1545" x1="166.197" y1="102.632" x2="166.197" y2="141.312" gradientUnits="userSpaceOnUse">
<stop offset="0.025" stop-color="#0E327E"/>
<stop offset="0.56" stop-color="#2144B4"/>
<stop offset="1" stop-color="#826BC5"/>
</linearGradient>
<linearGradient id="paint4_linear_421_1545" x1="215.066" y1="156.17" x2="215.066" y2="188.39" gradientUnits="userSpaceOnUse">
<stop offset="0.025" stop-color="#0E327E"/>
<stop offset="0.56" stop-color="#2144B4"/>
<stop offset="1" stop-color="#826BC5"/>
</linearGradient>
<linearGradient id="paint5_linear_421_1545" x1="188.329" y1="318.476" x2="188.329" y2="324.123" gradientUnits="userSpaceOnUse">
<stop offset="0.025" stop-color="#0E327E"/>
<stop offset="0.56" stop-color="#2144B4"/>
<stop offset="1" stop-color="#826BC5"/>
</linearGradient>
<linearGradient id="paint6_linear_421_1545" x1="157.688" y1="50.2155" x2="157.688" y2="115.72" gradientUnits="userSpaceOnUse">
<stop offset="0.025" stop-color="#0E327E"/>
<stop offset="0.56" stop-color="#2144B4"/>
<stop offset="1" stop-color="#826BC5"/>
</linearGradient>
<clipPath id="clip0_421_1545">
<rect width="310" height="399.242" fill="white"/>
</clipPath>
</defs>
</svg>
