<svg width="20" height="26" viewBox="0 0 20 26" fill="none" xmlns="http://www.w3.org/2000/svg">
<path d="M14.9449 25.4955C15.2393 25.512 15.5349 25.4806 15.8146 25.4031C16.0943 25.3256 16.3527 25.2035 16.575 25.0439C16.7973 24.8843 16.9793 24.6902 17.1104 24.4727C17.2415 24.2553 17.3193 24.0187 17.3392 23.7766L17.4379 22.5795L13.0651 20.9718L12.8546 23.5268C12.815 24.0157 13.0129 24.4975 13.4048 24.8666C13.7966 25.2357 14.3505 25.4618 14.9449 25.4955Z" fill="#797984"/>
<path d="M13.3663 18.1462L17.9976 19.9388L19.497 15.524C20.5702 11.4624 19.9066 8.42761 17.676 7.19693C16.3678 6.47495 14.9518 6.62204 14.1289 7.08823C14.1196 7.09357 14.11 7.09843 14.1002 7.10303C14.0937 7.10602 13.355 7.46159 12.7071 8.24916C11.8433 9.29872 11.5376 10.5842 11.7978 12.0702L13.3663 18.1462Z" fill="#797984"/>
<path d="M6.91555 14.7789L2.53906 16.3801L2.63473 17.5774C2.65414 17.8196 2.73136 18.0563 2.86199 18.274C2.99262 18.4916 3.1741 18.686 3.39607 18.8459C3.61804 19.0059 3.87615 19.1284 4.15567 19.2063C4.43518 19.2842 4.73063 19.3161 5.02514 19.3002C5.31964 19.2842 5.60745 19.2207 5.87211 19.1133C6.13678 19.0059 6.37312 18.8566 6.56765 18.6741C6.76217 18.4915 6.91107 18.2793 7.00585 18.0494C7.10063 17.8196 7.13942 17.5766 7.12002 17.3344L6.91555 14.7789Z" fill="#797984"/>
<path d="M1.98379 13.7387L6.61917 11.9532L8.20176 5.87934C8.46513 4.39377 8.16214 3.10785 7.30102 2.05696C6.6549 1.26837 5.9168 0.911626 5.90946 0.908154C5.90037 0.903828 5.89043 0.898647 5.88179 0.893786C5.06004 0.426424 3.64444 0.277082 2.33446 0.997033C0.10101 2.22441 -0.569344 5.2582 0.494544 9.32147L1.98379 13.7387Z" fill="#797984"/>
</svg>
